<?xml version="1.0" encoding="UTF-8"?>
<svg version="1.1" xmlns="http://www.w3.org/2000/svg" width="394" height="469">
<path d="M0 0 C0.92973633 0.19867676 1.85947266 0.39735352 2.81738281 0.60205078 C32.77450942 7.10493924 61.43708667 19.65701039 80.1875 45.0625 C82 48 82 48 82 50 C82.66 50 83.32 50 84 50 C99.20550866 75.92866783 106.23464392 100.91624684 110.78123474 130.49415588 C114.90350242 157.30748693 120.22730789 182.46025596 130.73828125 207.625 C131.1969458 208.73069336 131.65561035 209.83638672 132.12817383 210.97558594 C133.01663163 213.09624728 133.92295637 215.20954737 134.8503418 217.31347656 C137.60764666 223.85997771 139.15283857 229.86322864 138 237 C135.6734188 239.3265812 135.11028167 239.34237251 131.9375 239.4375 C124.74723368 239.29833356 119.54116525 235.18278858 114 231 C114.13929932 231.80397217 114.27859863 232.60794434 114.42211914 233.4362793 C115.99094248 243.26873172 116.44261617 252.87075001 116.4375 262.8125 C116.43790283 263.62025879 116.43830566 264.42801758 116.4387207 265.26025391 C116.33629404 301.1095864 102.96890427 332.48844473 85 363 C84.34 363 83.68 363 83 363 C82.67 363.99 82.34 364.98 82 366 C78.33333333 366 74.66666667 366 71 366 C68.74183654 368.03119111 68.74183654 368.03119111 66.625 370.6875 C57.89604962 380.74290853 57.89604962 380.74290853 52.3125 381.5 C48.77525425 380.96607611 48.23754803 380.5417464 46 378 C45.26394531 378.54269531 44.52789062 379.08539063 43.76953125 379.64453125 C42.79371094 380.35996094 41.81789063 381.07539063 40.8125 381.8125 C39.84957031 382.52019531 38.88664062 383.22789062 37.89453125 383.95703125 C35 386 35 386 32.34765625 387.53125 C29.93601659 389.04002955 28.43616647 390.50968276 26.625 392.6875 C26.03203125 393.38875 25.4390625 394.09 24.828125 394.8125 C24.22484375 395.534375 23.6215625 396.25625 23 397 C19.13643797 401.49097808 15.24330462 405.86019062 11 410 C10.15888672 410.87398438 10.15888672 410.87398438 9.30078125 411.765625 C4.73991525 416.46525975 -0.09866685 420.61329371 -5.20703125 424.70703125 C-7.91502094 426.93023397 -10.49047467 429.24678506 -13.0625 431.625 C-24.21101304 441.73110057 -32.95381042 446.79955836 -48.1015625 446.27734375 C-60.70674038 445.3805826 -71.60778406 439.14789904 -80.1484375 429.95703125 C-81.96125817 428.04094864 -83.85139038 426.37652875 -85.875 424.6875 C-92.82909059 418.68602456 -98.73123413 411.62193317 -104.5 404.5 C-105.99885816 402.66573302 -107.49887277 400.83241048 -109 399 C-109.76828125 398.04609375 -110.5365625 397.0921875 -111.328125 396.109375 C-116.60217684 389.88259121 -121.60787463 386.21339974 -128.92578125 382.63671875 C-133.20480069 380.35856228 -136.57800751 377.4013158 -140 374 C-140.33 374.66 -140.66 375.32 -141 376 C-145.46403536 376.55800442 -148.12374712 376.32616162 -151.875 373.75 C-174.01229974 355.26684186 -180.89741643 323.62572065 -187 297 C-188.15757812 297.42152344 -189.31515625 297.84304688 -190.5078125 298.27734375 C-192.04677892 298.8309963 -193.58584683 299.38436683 -195.125 299.9375 C-195.88554687 300.21529297 -196.64609375 300.49308594 -197.4296875 300.77929688 C-198.17734375 301.04677734 -198.925 301.31425781 -199.6953125 301.58984375 C-200.37609863 301.83597412 -201.05688477 302.08210449 -201.75830078 302.33569336 C-206.51572453 303.74551149 -211.11197839 304.12313413 -216.0546875 304.09765625 C-217.16328125 304.09443359 -218.271875 304.09121094 -219.4140625 304.08789062 C-220.55617187 304.07951172 -221.69828125 304.07113281 -222.875 304.0625 C-224.0403125 304.05798828 -225.205625 304.05347656 -226.40625 304.04882812 C-229.27088645 304.03708781 -232.13541633 304.0206657 -235 304 C-235.33 302.68 -235.66 301.36 -236 300 C-236.99 300 -237.98 300 -239 300 C-239 298.35 -239 296.7 -239 295 C-238.34 295 -237.68 295 -237 295 C-237 294.01 -237 293.02 -237 292 C-235.71484375 290.6496582 -235.71484375 290.6496582 -233.9375 289.30078125 C-232.99003906 288.57084961 -232.99003906 288.57084961 -232.0234375 287.82617188 C-231.02183594 287.0769043 -231.02183594 287.0769043 -230 286.3125 C-229.33226562 285.80138672 -228.66453125 285.29027344 -227.9765625 284.76367188 C-226.32409478 283.5007144 -224.6628489 282.24925765 -223 281 C-223.98742187 280.96261719 -224.97484375 280.92523438 -225.9921875 280.88671875 C-227.91417969 280.78810547 -227.91417969 280.78810547 -229.875 280.6875 C-231.15117187 280.62949219 -232.42734375 280.57148438 -233.7421875 280.51171875 C-234.81726563 280.34285156 -235.89234375 280.17398437 -237 280 C-239.36086122 276.45870816 -239.57269578 275.17249782 -239 271 C-236.47295712 267.28840577 -233.73697206 264.7826037 -230.25 262 C-212.7081582 246.8697485 -206.81450099 219.8572949 -204 198 C-204.99 198.33 -205.98 198.66 -207 199 C-209.57265818 199.07029121 -212.11641431 199.09370832 -214.6875 199.0625 C-215.38939453 199.05798828 -216.09128906 199.05347656 -216.81445312 199.04882812 C-218.54300538 199.03706927 -220.27151365 199.01913454 -222 199 C-222 198.01 -222 197.02 -222 196 C-222.99 196 -223.98 196 -225 196 C-224.77366027 185.13569289 -214.394913 178.30355488 -207.15576172 171.19140625 C-206.52041504 170.56492188 -205.88506836 169.9384375 -205.23046875 169.29296875 C-204.65707764 168.7311792 -204.08368652 168.16938965 -203.49291992 167.59057617 C-200.03441213 163.90583729 -199.66340428 161.2796426 -199.32421875 156.3671875 C-199.22107181 155.00222601 -199.11720001 153.63731915 -199.01269531 152.27246094 C-198.96036743 151.55537964 -198.90803955 150.83829834 -198.85412598 150.0994873 C-196.12163267 113.62020123 -187.79328607 78.66612789 -164.38671875 49.72167969 C-163.07662893 48.0951386 -161.79906728 46.4486561 -160.53125 44.7890625 C-156.61142173 39.71884984 -156.61142173 39.71884984 -155 38 C-154.34 38 -153.68 38 -153 38 C-153 37.34 -153 36.68 -153 36 C-150.53446793 33.4518244 -147.72159391 31.2687422 -145 29 C-144.31035156 28.38898437 -143.62070313 27.77796875 -142.91015625 27.1484375 C-123.70776427 10.74709743 -96.76428515 -1.33620765 -71.34375 -2.31640625 C-70.25376709 -2.35862305 -69.16378418 -2.40083984 -68.04077148 -2.44433594 C-18.37516479 -4.10179671 -18.37516479 -4.10179671 0 0 Z " fill="#FDA20F" transform="translate(240,21)"/>
<path d="M0 0 C31.93286273 -0.7808996 72.7850079 5.96430812 96.98681641 28.71191406 C97.88400391 29.59105469 98.78119141 30.47019531 99.70556641 31.37597656 C101.75037115 33.36908681 103.75530229 35.13847405 105.95947266 36.93066406 C109.77917663 40.17569466 112.58607092 43.85252923 115.42431641 47.96191406 C116.19582031 49.06696289 116.19582031 49.06696289 116.98291016 50.19433594 C121.93644585 57.45745765 125.8675693 65.09146632 129.48681641 73.08691406 C129.8182666 73.7986377 130.1497168 74.51036133 130.49121094 75.24365234 C140.4269248 96.92029471 143.28009577 121.73054982 146.47119141 145.16894531 C150.20891631 172.43126979 159.10731944 198.10638395 170.29931641 223.16894531 C171.5951869 226.35320604 171.73600097 228.68139162 171.48681641 232.08691406 C161.83762045 232.08691406 154.76616018 224.52320581 148.29931641 218.08691406 C147.02058474 216.76115373 145.74660462 215.43068815 144.48681641 214.08691406 C144.92105737 221.42408902 146.08486118 228.37860434 147.76806641 235.53222656 C152.0883561 256.89887665 150.94310873 280.3715885 144.48681641 301.08691406 C144.12174894 302.37995339 143.7607802 303.67416009 143.40478516 304.96972656 C141.86080952 310.37056564 140.07683419 315.38192955 137.42041016 320.33300781 C135.9130751 323.16477952 134.73097953 326.13202665 133.48681641 329.08691406 C130.71047236 335.53806684 127.70133993 341.84294564 124.48681641 348.08691406 C124.06142578 348.94414062 123.63603516 349.80136719 123.19775391 350.68457031 C122.77751953 351.49796875 122.35728516 352.31136719 121.92431641 353.14941406 C121.55177734 353.88289063 121.17923828 354.61636719 120.79541016 355.37207031 C119.48681641 357.08691406 119.48681641 357.08691406 115.48681641 358.08691406 C114.82681641 355.44691406 114.16681641 352.80691406 113.48681641 350.08691406 C112.82681641 350.08691406 112.16681641 350.08691406 111.48681641 350.08691406 C111.17744141 351.07691406 111.17744141 351.07691406 110.86181641 352.08691406 C107.81248376 358.74000347 102.87001435 363.90680063 97.79931641 369.08691406 C97.32373291 369.5801416 96.84814941 370.07336914 96.3581543 370.58154297 C92.84596342 374.08691406 92.84596342 374.08691406 89.48681641 374.08691406 C89.48681641 370.12691406 89.48681641 366.16691406 89.48681641 362.08691406 C88.46974609 363.26447266 88.46974609 363.26447266 87.43212891 364.46582031 C81.74522969 370.92928109 76.11158955 376.84927107 68.48681641 381.08691406 C67.82681641 381.08691406 67.16681641 381.08691406 66.48681641 381.08691406 C67.4856619 377.97730075 68.54722109 374.9391773 69.78369141 371.91503906 C76.53420772 355.29279996 80.64340917 337.27602556 82.19848633 319.40429688 C82.87710546 313.41079453 84.78641761 310.89084504 89.48681641 307.08691406 C90.14681641 307.08691406 90.80681641 307.08691406 91.48681641 307.08691406 C91.72916016 306.53003906 91.97150391 305.97316406 92.22119141 305.39941406 C93.74630677 302.61278352 95.64506176 300.4774908 97.73681641 298.08691406 C101.18989794 294.02639663 103.32560556 290.39913702 105.29931641 285.46191406 C106.69384766 282.42675781 106.69384766 282.42675781 108.48681641 280.08691406 C111.67563438 279.1033644 114.31110925 279.02114813 117.63916016 279.08300781 C121.22839917 279.08793132 123.46267 277.94792724 126.48681641 276.08691406 C127.47681641 275.75691406 128.46681641 275.42691406 129.48681641 275.08691406 C130.62028226 273.0177208 130.62028226 273.0177208 131.48681641 270.08691406 C131.82519531 269.15298828 131.82519531 269.15298828 132.17041016 268.20019531 C134.88621363 260.13721401 135.93225442 251.74405977 137.14550781 243.35351562 C137.4054575 241.62721167 137.70273302 239.90648369 138.0168457 238.18920898 C138.8237754 232.86263463 138.67132393 227.52690055 138.67431641 222.14941406 C138.6865625 220.99505859 138.69880859 219.84070313 138.71142578 218.65136719 C138.87657683 208.30403029 138.87657683 208.30403029 134.23681641 199.39941406 C127.08396821 193.38451899 119.62708455 189.91496769 110.48681641 188.08691406 C110.48681641 184.12691406 110.48681641 180.16691406 110.48681641 176.08691406 C108.17681641 176.08691406 105.86681641 176.08691406 103.48681641 176.08691406 C103.47801704 175.18941689 103.47801704 175.18941689 103.46903992 174.27378845 C103.40494174 168.02767802 103.3204799 161.78207502 103.22436523 155.53637695 C103.19117892 153.20766911 103.16312753 150.87888204 103.14038086 148.55004883 C103.10671971 145.1961095 103.05439641 141.842892 102.99853516 138.48925781 C102.98895027 136.93572853 102.98895027 136.93572853 102.97917175 135.35081482 C102.86077868 129.48630693 102.22363858 125.29469069 99.48681641 120.08691406 C99.15681641 119.42691406 98.82681641 118.76691406 98.48681641 118.08691406 C92.02849213 117.1797247 87.36190223 120.40509284 81.86181641 123.33691406 C56.3826126 136.47048376 30.02052153 147.07761724 2.23681641 154.14941406 C0.40473633 154.6169812 0.40473633 154.6169812 -1.46435547 155.09399414 C-2.599375 155.37138428 -3.73439453 155.64877441 -4.90380859 155.93457031 C-5.91475586 156.18215088 -6.92570313 156.42973145 -7.96728516 156.68481445 C-10.51318359 157.08691406 -10.51318359 157.08691406 -13.51318359 156.08691406 C-12.88657837 155.42272461 -12.88657837 155.42272461 -12.24731445 154.74511719 C-10.31363208 152.69376489 -8.3821521 150.64035089 -6.45068359 148.58691406 C-5.79390625 147.89082031 -5.13712891 147.19472656 -4.46044922 146.47753906 C-1.12943967 142.93321363 2.17489507 139.36606462 5.42041016 135.74316406 C5.98687256 135.11216797 6.55333496 134.48117188 7.13696289 133.83105469 C8.69315406 132.01883077 8.69315406 132.01883077 9.48681641 129.08691406 C5.21138094 129.65232491 2.55235129 131.14259842 -1.01318359 133.52441406 C-13.12924384 141.29857207 -26.54972792 147.45303891 -40.21240234 151.95410156 C-42.81800363 152.84833159 -45.28578025 153.83210275 -47.81787109 154.90332031 C-55.33402861 157.93485831 -63.15028629 159.99037731 -70.95068359 162.14941406 C-71.74810974 162.37301605 -72.54553589 162.59661804 -73.36712646 162.82699585 C-83.28606517 165.6006615 -93.104871 168.22846019 -103.40942383 169.08911133 C-105.62816681 169.26344769 -105.62816681 169.26344769 -108.51318359 170.08691406 C-110.0715262 172.5397601 -110.0715262 172.5397601 -110.51318359 175.08691406 C-113.81318359 175.41691406 -117.11318359 175.74691406 -120.51318359 176.08691406 C-120.51318359 180.04691406 -120.51318359 184.00691406 -120.51318359 188.08691406 C-121.98078125 188.50650391 -121.98078125 188.50650391 -123.47802734 188.93457031 C-132.77428041 191.7236835 -141.03652648 194.65463732 -146.51318359 203.21191406 C-150.56035151 214.84752183 -148.32095482 227.49470273 -146.63818359 239.39941406 C-146.46416016 240.70458984 -146.29013672 242.00976562 -146.11083984 243.35449219 C-143.75260717 261.61153817 -143.75260717 261.61153817 -134.51318359 277.08691406 C-130.79713698 279.56427847 -129.15549729 279.07378703 -124.76318359 278.89941406 C-120.96240234 279.10644531 -120.96240234 279.10644531 -117.51318359 280.08691406 C-114.96030925 283.10476026 -113.59819468 286.03514423 -112.02490234 289.65332031 C-109.47206951 295.45161504 -105.48976157 300.2475579 -100.86865234 304.54785156 C-97.04955176 309.15022806 -97.63841787 315.06966348 -97.45068359 320.77441406 C-96.44269945 339.49555417 -94.08637491 358.85278278 -82.64990234 374.37988281 C-81.51318359 376.08691406 -81.51318359 376.08691406 -81.51318359 378.08691406 C-87.29727021 377.71939267 -90.08167786 375.43476976 -94.20068359 371.71191406 C-94.76851563 371.21691406 -95.33634766 370.72191406 -95.92138672 370.21191406 C-101.81263919 365.04584507 -101.81263919 365.04584507 -103.51318359 363.08691406 C-103.51318359 362.42691406 -103.51318359 361.76691406 -103.51318359 361.08691406 C-104.17318359 361.08691406 -104.83318359 361.08691406 -105.51318359 361.08691406 C-105.51318359 363.39691406 -105.51318359 365.70691406 -105.51318359 368.08691406 C-112.30421735 366.89848316 -115.5804313 362.32818723 -119.51318359 357.08691406 C-127.32622768 345.90782997 -132.01047124 333.89593873 -136.51318359 321.08691406 C-136.94759766 319.90355469 -137.38201172 318.72019531 -137.82958984 317.50097656 C-139.91006401 311.65108242 -141.22412051 305.92300161 -142.11865234 299.77832031 C-142.47194598 297.12119078 -142.47194598 297.12119078 -143.06396484 294.67675781 C-143.62293319 291.45418378 -143.57718103 288.35078321 -143.51318359 285.08691406 C-144.37298828 285.54582031 -145.23279297 286.00472656 -146.11865234 286.47753906 C-154.03651191 290.61870261 -161.81376606 293.86120339 -170.51318359 296.08691406 C-171.25826172 296.28414063 -172.00333984 296.48136719 -172.77099609 296.68457031 C-176.95212045 297.29804012 -181.10673231 297.19031366 -185.32568359 297.14941406 C-186.20933594 297.14490234 -187.09298828 297.14039063 -188.00341797 297.13574219 C-190.17336918 297.12401272 -192.34328531 297.10607901 -194.51318359 297.08691406 C-193.68224424 292.36200158 -190.7658069 290.61305036 -187.07568359 287.89941406 C-185.79627975 286.92685778 -184.51895054 285.95156658 -183.24365234 284.97363281 C-182.61120605 284.48942871 -181.97875977 284.00522461 -181.32714844 283.50634766 C-176.28115967 279.55784447 -171.31003043 275.393412 -167.36474609 270.32910156 C-166.44822266 269.21921875 -166.44822266 269.21921875 -165.51318359 268.08691406 C-164.85318359 268.08691406 -164.19318359 268.08691406 -163.51318359 268.08691406 C-163.51318359 267.42691406 -163.51318359 266.76691406 -163.51318359 266.08691406 C-164.48255859 266.52003906 -165.45193359 266.95316406 -166.45068359 267.39941406 C-176.1327865 271.52653267 -184.97116035 273.30205739 -195.51318359 273.08691406 C-194.13920083 269.88325577 -192.68904578 268.21121927 -189.95068359 266.08691406 C-167.63655748 247.13408099 -162.88191028 216.37971199 -158.51318359 189.08691406 C-159.33044922 189.40402344 -160.14771484 189.72113281 -160.98974609 190.04785156 C-165.02552918 191.23800489 -168.70827392 191.53050749 -172.88818359 191.71191406 C-173.62423828 191.75058594 -174.36029297 191.78925781 -175.11865234 191.82910156 C-176.91645765 191.92249405 -178.71478468 192.00575117 -180.51318359 192.08691406 C-178.50004129 186.65418758 -175.64595978 182.7821977 -171.07568359 179.14941406 C-168.32367372 176.93438173 -166.24961954 174.53618189 -164.00146484 171.82910156 C-161.96957223 169.4505606 -159.72411323 167.2978437 -157.51318359 165.08691406 C-156.29810614 162.65675916 -156.26090661 160.84002094 -156.08349609 158.12597656 C-156.01195312 157.10640869 -155.94041016 156.08684082 -155.86669922 155.03637695 C-155.75358398 153.39076782 -155.75358398 153.39076782 -155.63818359 151.71191406 C-154.79866429 140.39385971 -153.42535531 129.27005242 -151.51318359 118.08691406 C-151.36107422 117.14332031 -151.20896484 116.19972656 -151.05224609 115.22753906 C-147.59506082 95.78902566 -140.03915115 76.15411284 -128.51318359 60.08691406 C-128.08714844 59.48476074 -127.66111328 58.88260742 -127.22216797 58.26220703 C-125.78720943 56.23828037 -124.34088419 54.22314045 -122.88818359 52.21191406 C-122.43266113 51.58051514 -121.97713867 50.94911621 -121.5078125 50.29858398 C-118.76388129 46.57083849 -115.86967721 43.29517137 -112.51318359 40.08691406 C-111.69462891 39.25546875 -110.87607422 38.42402344 -110.03271484 37.56738281 C-85.81396458 13.72411705 -55.02589455 1.163268 -21.26318359 0.46191406 C-19.74617017 0.42599002 -18.22916173 0.38985492 -16.7121582 0.35351562 C-12.98695864 0.26758563 -9.26162609 0.19514433 -5.53607178 0.12658691 C-3.69058704 0.0903933 -1.84527501 0.045651 0 0 Z " fill="#010101" transform="translate(201.51318359375,22.9130859375)"/>
<path d="M0 0 C0.92973633 0.19867676 1.85947266 0.39735352 2.81738281 0.60205078 C32.77450942 7.10493924 61.43708667 19.65701039 80.1875 45.0625 C82 48 82 48 82 50 C82.66 50 83.32 50 84 50 C99.20550866 75.92866783 106.23464392 100.91624684 110.78123474 130.49415588 C114.90350242 157.30748693 120.22730789 182.46025596 130.73828125 207.625 C131.1969458 208.73069336 131.65561035 209.83638672 132.12817383 210.97558594 C133.01663163 213.09624728 133.92295637 215.20954737 134.8503418 217.31347656 C137.60764666 223.85997771 139.15283857 229.86322864 138 237 C135.6734188 239.3265812 135.11028167 239.34237251 131.9375 239.4375 C124.74723368 239.29833356 119.54116525 235.18278858 114 231 C114.13929932 231.80397217 114.27859863 232.60794434 114.42211914 233.4362793 C115.99094248 243.26873172 116.44261617 252.87075001 116.4375 262.8125 C116.43790283 263.62025879 116.43830566 264.42801758 116.4387207 265.26025391 C116.33629404 301.1095864 102.96890427 332.48844473 85 363 C84.34 363 83.68 363 83 363 C82.67 363.99 82.34 364.98 82 366 C78.33333333 366 74.66666667 366 71 366 C68.74183654 368.03119111 68.74183654 368.03119111 66.625 370.6875 C57.89604962 380.74290853 57.89604962 380.74290853 52.3125 381.5 C48.77525425 380.96607611 48.23754803 380.5417464 46 378 C45.26394531 378.54269531 44.52789062 379.08539063 43.76953125 379.64453125 C42.79371094 380.35996094 41.81789063 381.07539063 40.8125 381.8125 C39.84957031 382.52019531 38.88664062 383.22789062 37.89453125 383.95703125 C35 386 35 386 32.34765625 387.53125 C29.93601659 389.04002955 28.43616647 390.50968276 26.625 392.6875 C26.03203125 393.38875 25.4390625 394.09 24.828125 394.8125 C24.22484375 395.534375 23.6215625 396.25625 23 397 C19.13643797 401.49097808 15.24330462 405.86019062 11 410 C10.15888672 410.87398438 10.15888672 410.87398438 9.30078125 411.765625 C4.73991525 416.46525975 -0.09866685 420.61329371 -5.20703125 424.70703125 C-7.91502094 426.93023397 -10.49047467 429.24678506 -13.0625 431.625 C-24.21101304 441.73110057 -32.95381042 446.79955836 -48.1015625 446.27734375 C-60.70674038 445.3805826 -71.60778406 439.14789904 -80.1484375 429.95703125 C-81.96125817 428.04094864 -83.85139038 426.37652875 -85.875 424.6875 C-92.82909059 418.68602456 -98.73123413 411.62193317 -104.5 404.5 C-105.99885816 402.66573302 -107.49887277 400.83241048 -109 399 C-109.76828125 398.04609375 -110.5365625 397.0921875 -111.328125 396.109375 C-116.60217684 389.88259121 -121.60787463 386.21339974 -128.92578125 382.63671875 C-133.20480069 380.35856228 -136.57800751 377.4013158 -140 374 C-140.33 374.66 -140.66 375.32 -141 376 C-145.46403536 376.55800442 -148.12374712 376.32616162 -151.875 373.75 C-174.01229974 355.26684186 -180.89741643 323.62572065 -187 297 C-188.15757812 297.42152344 -189.31515625 297.84304688 -190.5078125 298.27734375 C-192.04677892 298.8309963 -193.58584683 299.38436683 -195.125 299.9375 C-195.88554687 300.21529297 -196.64609375 300.49308594 -197.4296875 300.77929688 C-198.17734375 301.04677734 -198.925 301.31425781 -199.6953125 301.58984375 C-200.37609863 301.83597412 -201.05688477 302.08210449 -201.75830078 302.33569336 C-206.51572453 303.74551149 -211.11197839 304.12313413 -216.0546875 304.09765625 C-217.16328125 304.09443359 -218.271875 304.09121094 -219.4140625 304.08789062 C-220.55617187 304.07951172 -221.69828125 304.07113281 -222.875 304.0625 C-224.0403125 304.05798828 -225.205625 304.05347656 -226.40625 304.04882812 C-229.27088645 304.03708781 -232.13541633 304.0206657 -235 304 C-235.33 302.68 -235.66 301.36 -236 300 C-236.99 300 -237.98 300 -239 300 C-239 298.35 -239 296.7 -239 295 C-238.34 295 -237.68 295 -237 295 C-237 294.01 -237 293.02 -237 292 C-235.71484375 290.6496582 -235.71484375 290.6496582 -233.9375 289.30078125 C-232.99003906 288.57084961 -232.99003906 288.57084961 -232.0234375 287.82617188 C-231.02183594 287.0769043 -231.02183594 287.0769043 -230 286.3125 C-229.33226562 285.80138672 -228.66453125 285.29027344 -227.9765625 284.76367188 C-226.32409478 283.5007144 -224.6628489 282.24925765 -223 281 C-223.98742187 280.96261719 -224.97484375 280.92523438 -225.9921875 280.88671875 C-227.91417969 280.78810547 -227.91417969 280.78810547 -229.875 280.6875 C-231.15117187 280.62949219 -232.42734375 280.57148438 -233.7421875 280.51171875 C-234.81726563 280.34285156 -235.89234375 280.17398437 -237 280 C-239.36086122 276.45870816 -239.57269578 275.17249782 -239 271 C-236.47295712 267.28840577 -233.73697206 264.7826037 -230.25 262 C-212.7081582 246.8697485 -206.81450099 219.8572949 -204 198 C-204.99 198.33 -205.98 198.66 -207 199 C-209.57265818 199.07029121 -212.11641431 199.09370832 -214.6875 199.0625 C-215.38939453 199.05798828 -216.09128906 199.05347656 -216.81445312 199.04882812 C-218.54300538 199.03706927 -220.27151365 199.01913454 -222 199 C-222 198.01 -222 197.02 -222 196 C-222.99 196 -223.98 196 -225 196 C-224.77366027 185.13569289 -214.394913 178.30355488 -207.15576172 171.19140625 C-206.52041504 170.56492188 -205.88506836 169.9384375 -205.23046875 169.29296875 C-204.65707764 168.7311792 -204.08368652 168.16938965 -203.49291992 167.59057617 C-200.03441213 163.90583729 -199.66340428 161.2796426 -199.32421875 156.3671875 C-199.22107181 155.00222601 -199.11720001 153.63731915 -199.01269531 152.27246094 C-198.96036743 151.55537964 -198.90803955 150.83829834 -198.85412598 150.0994873 C-196.12163267 113.62020123 -187.79328607 78.66612789 -164.38671875 49.72167969 C-163.07662893 48.0951386 -161.79906728 46.4486561 -160.53125 44.7890625 C-156.61142173 39.71884984 -156.61142173 39.71884984 -155 38 C-154.34 38 -153.68 38 -153 38 C-153 37.34 -153 36.68 -153 36 C-150.53446793 33.4518244 -147.72159391 31.2687422 -145 29 C-144.31035156 28.38898437 -143.62070313 27.77796875 -142.91015625 27.1484375 C-123.70776427 10.74709743 -96.76428515 -1.33620765 -71.34375 -2.31640625 C-70.25376709 -2.35862305 -69.16378418 -2.40083984 -68.04077148 -2.44433594 C-18.37516479 -4.10179671 -18.37516479 -4.10179671 0 0 Z M-46.13916016 2.05859375 C-49.86892573 2.11192082 -53.59803338 2.18327637 -57.32727051 2.26547241 C-58.79341658 2.29631905 -60.25965334 2.32316991 -61.72595215 2.34561157 C-92.86299226 2.85237483 -123.51150862 15.26305203 -146 37 C-146.825 37.78375 -147.65 38.5675 -148.5 39.375 C-149.7375 40.674375 -149.7375 40.674375 -151 42 C-151.54785156 42.56460938 -152.09570312 43.12921875 -152.66015625 43.7109375 C-176.31414716 69.06490722 -187.405302 100.30518668 -192.0625 134.125 C-192.24167969 135.40511963 -192.42085937 136.68523926 -192.60546875 138.00415039 C-193.69209348 145.99925536 -194.45914075 153.8663716 -194.53125 161.93359375 C-195.33802098 167.21122058 -198.36958013 170.84264997 -202.5 174.0625 C-205.44338761 176.46220455 -207.63281693 179.02193098 -210 182 C-211.010625 182.825 -212.02125 183.65 -213.0625 184.5 C-215.85980716 186.88068694 -217.40697592 188.7254505 -219 192 C-219 192.66 -219 193.32 -219 194 C-216.45749979 193.88525534 -213.91652662 193.7585303 -211.375 193.625 C-210.30572266 193.57859375 -210.30572266 193.57859375 -209.21484375 193.53125 C-204.82847392 193.28979845 -201.1405166 192.60657269 -197 191 C-201.81613732 220.87571362 -207.59509802 251.75125749 -232.56640625 271.66015625 C-233.03949219 272.10230469 -233.51257813 272.54445313 -234 273 C-234 273.66 -234 274.32 -234 275 C-222.44929431 275.37871166 -212.35421325 273.17710662 -202 268 C-202 268.66 -202 269.32 -202 270 C-202.66 270 -203.32 270 -204 270 C-205.49825323 271.52029885 -205.49825323 271.52029885 -207.0625 273.5 C-213.63024532 281.1893973 -221.35204827 287.13603389 -229.59375 292.921875 C-232.15764987 295.13615216 -232.40818504 295.83428592 -233 299 C-214.50967785 299.71652486 -198.04681147 296.99305046 -182 287 C-182.04125 287.99 -182.0825 288.98 -182.125 290 C-182.125 293.41648269 -181.47403265 296.42678563 -180.56054688 299.72631836 C-179.91941223 302.32687886 -179.54150864 304.91597774 -179.15625 307.56640625 C-178.14839211 313.71116352 -176.46854105 319.39576407 -174.375 325.25 C-174.02308594 326.24290039 -173.67117187 327.23580078 -173.30859375 328.25878906 C-168.06808049 342.68885003 -161.24077715 359.07504555 -149 369 C-146.32209104 369.87238858 -146.32209104 369.87238858 -144 370 C-144 367.69 -144 365.38 -144 363 C-143.34 363 -142.68 363 -142 363 C-141.75636719 363.57878906 -141.51273437 364.15757812 -141.26171875 364.75390625 C-137.69762105 371.09866221 -130.09292352 376.17698917 -124 380 C-122.68 380 -121.36 380 -120 380 C-121.07771131 376.86483982 -122.43746008 374.32552919 -124.3125 371.625 C-135.3897402 354.2085722 -135.57301944 331.87464746 -136 312 C-134.65808594 312.90492188 -134.65808594 312.90492188 -133.2890625 313.828125 C-120.59433602 322.26662262 -109.61441711 327.26699842 -94 326 C-80.88199438 323.02250197 -72.22215851 314.09632699 -64 304 C-64 303.34 -64 302.68 -64 302 C-63.01 301.67 -62.02 301.34 -61 301 C-60.56300781 300.56042969 -60.12601563 300.12085938 -59.67578125 299.66796875 C-57.41758479 297.42030001 -54.91701442 295.95020865 -52.1875 294.3125 C-51.17042969 293.68988281 -50.15335938 293.06726563 -49.10546875 292.42578125 C-45.68803989 290.85677303 -43.71228052 290.56355621 -40 291 C-34.39793461 293.14224497 -29.74843979 296.79165343 -25.41015625 300.86328125 C-24.04236067 302.20919461 -24.04236067 302.20919461 -22 302 C-21.77699219 302.53753906 -21.55398437 303.07507813 -21.32421875 303.62890625 C-15.99192993 313.17669183 -6.00696579 322.38193811 4.4921875 325.49609375 C18.21174416 328.2528271 30.3462699 323.9755302 42 317 C42.66 316.67 43.32 316.34 44 316 C43.67986232 326.10034376 41.96497776 335.21878442 39.4921875 344.96435547 C38.76388152 347.97656544 38.20668172 351.01905816 37.625 354.0625 C36.21628022 360.79477961 33.92151435 367.02842747 31.40234375 373.40625 C30.16416147 376.57930765 29.04525798 379.75920014 28 383 C37.50937879 378.47379682 44.23570176 371.96441567 51 364 C51 367.96 51 371.92 51 376 C54.76891806 375.05777049 55.52979446 374.85124589 58.05859375 372.33984375 C58.60749268 371.79690674 59.1563916 371.25396973 59.72192383 370.69458008 C60.28806396 370.11474365 60.8542041 369.53490723 61.4375 368.9375 C62.01717529 368.35057373 62.59685059 367.76364746 63.1940918 367.15893555 C70.03299748 360.53407787 70.03299748 360.53407787 73 352 C73.66 352 74.32 352 75 352 C75.66 354.64 76.32 357.28 77 360 C80.94425874 359.44942659 80.94425874 359.44942659 82.40039062 357.20922852 C82.81482422 356.44022217 83.22925781 355.67121582 83.65625 354.87890625 C84.12160156 354.02490234 84.58695312 353.17089844 85.06640625 352.29101562 C85.53949219 351.39060547 86.01257813 350.49019531 86.5 349.5625 C86.97308594 348.69689453 87.44617188 347.83128906 87.93359375 346.93945312 C90.66679859 341.85538927 92.97947268 336.74021274 95.04858398 331.35449219 C95.94943658 329.12513051 96.96066788 327.02046253 98.06640625 324.88671875 C101.62682119 317.94139004 103.72660536 310.44139376 106 303 C106.24991699 302.22027832 106.49983398 301.44055664 106.75732422 300.63720703 C113.83351685 278.10844304 112.68910697 252.93367501 108 230 C107.68095703 228.37191406 107.68095703 228.37191406 107.35546875 226.7109375 C107.03188397 225.09534157 106.69540457 223.48211454 106.33203125 221.875 C106 220 106 220 106 216 C106.66644531 216.71285156 107.33289063 217.42570313 108.01953125 218.16015625 C117.8531733 229.02313278 117.8531733 229.02313278 130.8203125 234.17578125 C131.89925781 234.08876953 131.89925781 234.08876953 133 234 C133.22473807 229.52093731 132.65176354 226.4561377 130.875 222.3515625 C130.41939697 221.27567871 129.96379395 220.19979492 129.49438477 219.09130859 C129.00123779 217.94742676 128.50809082 216.80354492 128 215.625 C124.233593 206.63014137 120.65527871 197.62761342 117.5625 188.375 C117.10520508 187.03042725 117.10520508 187.03042725 116.63867188 185.65869141 C111.20023696 169.07626706 108.63062286 152.09402245 106.14819336 134.87646484 C102.48170912 109.61367795 97.23400144 85.5965484 85 63 C84.25943359 61.62714844 84.25943359 61.62714844 83.50390625 60.2265625 C66.23461742 29.99307668 39.31157479 15.79415775 6.7265625 6.80859375 C-11.04684592 2.05781316 -27.88831161 1.80656097 -46.13916016 2.05859375 Z " fill="#D0D0D0" transform="translate(240,21)"/>
<path d="M0 0 C0 0.33 0 0.66 0 1 C-0.78761719 0.81695312 -1.57523438 0.63390625 -2.38671875 0.4453125 C-6.37695279 0.05809452 -9.51336572 -0.04568728 -13 2 C-17.97615671 7.67688919 -21.22633484 14.75421705 -24.65478516 21.42822266 C-26.13467284 24.25746709 -27.77889614 26.91516546 -29.5625 29.5625 C-33.30310833 35.33346297 -36.63372536 41.33065858 -40.0222168 47.31201172 C-45.93641473 57.71419815 -52.1205556 67.95237397 -58.30712891 78.1940918 C-59.94425441 80.90760254 -61.57468764 83.62501857 -63.203125 86.34375 C-65.40413532 90.01441534 -67.62699899 93.67035244 -69.875 97.3125 C-70.5453125 98.40046875 -71.215625 99.4884375 -71.90625 100.609375 C-73.34154492 102.93369588 -74.77887806 105.25664726 -76.21875 107.578125 C-76.57984863 108.16166748 -76.94094727 108.74520996 -77.31298828 109.34643555 C-78.31937817 110.9726228 -79.32760438 112.5976732 -80.3359375 114.22265625 C-81.67013206 116.44944576 -82.88765794 118.6573402 -84 121 C-83.34 121.66 -82.68 122.32 -82 123 C-90.18764269 130.61215343 -101.03658751 134.12986994 -112.0625 134.75 C-121.12395899 134.41019529 -129.19546908 130.42561398 -135.90234375 124.38671875 C-138 122 -138 122 -138 120 C-138.87011719 119.7215625 -138.87011719 119.7215625 -139.7578125 119.4375 C-143.01119648 117.35170679 -144.25280448 114.38534647 -145.875 111 C-146.22014648 110.2879541 -146.56529297 109.5759082 -146.92089844 108.84228516 C-153.58811386 94.69064243 -157.17837132 80.2204792 -159.56201172 64.8046875 C-159.98376584 62.10395652 -160.44568148 59.41240302 -160.91015625 56.71875 C-163.72749605 39.22192253 -163.29527128 21.66327913 -163 4 C-159.63082375 3.26611187 -156.38225257 2.81469469 -152.94140625 2.61108398 C-151.43508385 2.52112656 -151.43508385 2.52112656 -149.89833069 2.42935181 C-148.79750656 2.36887665 -147.69668243 2.30840149 -146.5625 2.24609375 C-145.37816879 2.18078461 -144.19383759 2.11547546 -142.97361755 2.04818726 C-138.98282176 1.83542533 -134.99162267 1.63397658 -131 1.4375 C-130.31453724 1.40325802 -129.62907448 1.36901604 -128.92284012 1.33373642 C-85.98243906 -0.79660551 -42.9785914 -0.28049012 0 0 Z " fill="#EF8D15" transform="translate(245,195)"/>
<path d="M0 0 C0.33 0 0.66 0 1 0 C1.01401855 1.35472412 1.01401855 1.35472412 1.02832031 2.73681641 C1.29960713 23.78814178 2.53631384 44.19557781 6 65 C6.14808105 65.92184082 6.29616211 66.84368164 6.44873047 67.79345703 C9.32983044 85.21661764 14.8960625 108.24671875 29 120 C31.59122178 121.81329559 34.26287585 123.41832225 37 125 C37.59425781 125.39703125 38.18851562 125.7940625 38.80078125 126.203125 C45.54273324 130.30315576 53.39841956 130.16971323 60.97119141 128.58837891 C68.27559192 126.72590944 74.85709769 124.15393425 80.58203125 119.13671875 C82 118 82 118 84 118 C84.22945313 117.43410156 84.45890625 116.86820312 84.6953125 116.28515625 C86.34440497 113.39677573 88.37733433 111.62758963 90.875 109.4375 C92.17050781 108.29087891 92.17050781 108.29087891 93.4921875 107.12109375 C94.31976563 106.42113281 95.14734375 105.72117187 96 105 C96.64195312 104.45472656 97.28390625 103.90945313 97.9453125 103.34765625 C103.68117391 99.58554182 109.68245861 99.60472956 116.3125 99.5625 C117.21162109 99.52962891 118.11074219 99.49675781 119.03710938 99.46289062 C125.62491253 99.41049306 130.8015704 100.78345429 136 105 C136.33 105.99 136.66 106.98 137 108 C137.66 108.33 138.32 108.66 139 109 C139.66 109.33 140.32 109.66 141 110 C141.33 110.99 141.66 111.98 142 113 C142.7425 113.28875 143.485 113.5775 144.25 113.875 C147 115 147 115 149.0625 117.25 C156.552264 125.314059 169.69924026 128.88323287 180.3125 129.3125 C186.02020744 129.25062783 190.07526311 127.78315406 195 125 C195.71285156 124.60296875 196.42570313 124.2059375 197.16015625 123.796875 C210.05209908 116.18219475 215.7071077 103.8595033 220 90 C220.20334961 89.37367676 220.40669922 88.74735352 220.61621094 88.10205078 C228.60270976 63.32646123 230.85865294 37.85819758 231 12 C241.27416574 13.25908894 250.80753904 16.70425984 257.375 25 C264.10546298 37.42547013 260.80359804 58.18613655 257.78515625 71.5234375 C257.00204106 74.99096248 256.51218152 78.41296913 256.0625 81.9375 C254.83919419 90.02936711 252.55084775 96.72736644 246 102 C242.10768782 103.92602344 239.00537989 104.21989846 234.6875 104.125 C233.61886719 104.10695313 232.55023438 104.08890625 231.44921875 104.0703125 C230.64097656 104.04710937 229.83273437 104.02390625 229 104 C228.70351563 104.74894531 228.40703125 105.49789062 228.1015625 106.26953125 C223.53785039 117.58171127 216.36863899 126.35506998 207.25 134.4375 C204.67857318 137.36606943 204.26739047 139.16740329 204 143 C203.67 143 203.34 143 203 143 C203 141.35 203 139.7 203 138 C202.38253906 138.39832031 201.76507813 138.79664063 201.12890625 139.20703125 C190.03898644 146.144561 179.1605893 149.1798003 166 148 C153.53581243 144.86604479 144.85870933 135.65003278 137 126 C137 125.34 137 124.68 137 124 C136.41992188 123.73058594 135.83984375 123.46117187 135.2421875 123.18359375 C132.98227772 121.99064486 131.12837821 120.64347919 129.125 119.0625 C123.87541594 115.08642614 119.7750806 112.36129908 113 113 C110.42812196 114.18205312 108.15146017 115.35992187 105.75 116.8125 C105.12609375 117.16892578 104.5021875 117.52535156 103.859375 117.89257812 C100.77169357 119.70592552 99.01527428 120.97708859 97 124 C96.34 124 95.68 124 95 124 C94.78085938 124.52851563 94.56171875 125.05703125 94.3359375 125.6015625 C88.41120849 136.23835668 78.53947913 143.99648083 67.02734375 147.62109375 C51.36760596 150.54786555 38.58865642 144.47807473 26 136 C25.01 135.34 24.02 134.68 23 134 C23 138.29 23 142.58 23 147 C22.67 147 22.34 147 22 147 C22.04382813 146.05640625 22.08765625 145.1128125 22.1328125 144.140625 C22.11346333 134.50473837 20.38806828 130.01961336 13.58203125 122.78515625 C8.45350963 117.25318058 5.22990118 111.1645899 3 104 C2.05898437 104.05800781 1.11796875 104.11601562 0.1484375 104.17578125 C-11.30096749 104.59061476 -11.30096749 104.59061476 -14.5625 102.125 C-17.75726696 98.02914492 -19.94856895 93.75694156 -22 89 C-22.33088623 88.25403564 -22.66177246 87.50807129 -23.00268555 86.73950195 C-24.1102855 83.69705911 -24.59407799 80.87480338 -25.03515625 77.66796875 C-25.20466797 76.45689453 -25.37417969 75.24582031 -25.54882812 73.99804688 C-25.71833984 72.74056641 -25.88785156 71.48308594 -26.0625 70.1875 C-26.23587891 68.94162109 -26.40925781 67.69574219 -26.58789062 66.41210938 C-27.06827939 62.94263493 -27.5366684 59.47178794 -28 56 C-28.11037598 55.19377197 -28.22075195 54.38754395 -28.33447266 53.55688477 C-29.80680801 42.4666182 -30.14966301 32.34654343 -23.875 22.75 C-17.70725265 16.85041558 -8.6306347 12 0 12 C0 8.04 0 4.08 0 0 Z " fill="#675C5C" transform="translate(81,199)"/>
<path d="M0 0 C0.92973633 0.19867676 1.85947266 0.39735352 2.81738281 0.60205078 C32.77450942 7.10493924 61.43708667 19.65701039 80.1875 45.0625 C82 48 82 48 82 50 C82.66 50 83.32 50 84 50 C99.20550866 75.92866783 106.23464392 100.91624684 110.78123474 130.49415588 C114.90350242 157.30748693 120.22730789 182.46025596 130.73828125 207.625 C131.1969458 208.73069336 131.65561035 209.83638672 132.12817383 210.97558594 C133.01663163 213.09624728 133.92295637 215.20954737 134.8503418 217.31347656 C137.60764666 223.85997771 139.15283857 229.86322864 138 237 C135.6734188 239.3265812 135.11028167 239.34237251 131.9375 239.4375 C124.74723368 239.29833356 119.54116525 235.18278858 114 231 C114.13929932 231.80397217 114.27859863 232.60794434 114.42211914 233.4362793 C115.99094248 243.26873172 116.44261617 252.87075001 116.4375 262.8125 C116.43790283 263.62025879 116.43830566 264.42801758 116.4387207 265.26025391 C116.33629404 301.1095864 102.96890427 332.48844473 85 363 C84.34 363 83.68 363 83 363 C82.67 363.99 82.34 364.98 82 366 C78.33333333 366 74.66666667 366 71 366 C68.74183654 368.03119111 68.74183654 368.03119111 66.625 370.6875 C57.89604962 380.74290853 57.89604962 380.74290853 52.3125 381.5 C48.77525425 380.96607611 48.23754803 380.5417464 46 378 C45.26394531 378.54269531 44.52789062 379.08539063 43.76953125 379.64453125 C42.79371094 380.35996094 41.81789063 381.07539063 40.8125 381.8125 C39.84957031 382.52019531 38.88664062 383.22789062 37.89453125 383.95703125 C35 386 35 386 32.34765625 387.53125 C29.93601659 389.04002955 28.43616647 390.50968276 26.625 392.6875 C26.03203125 393.38875 25.4390625 394.09 24.828125 394.8125 C24.22484375 395.534375 23.6215625 396.25625 23 397 C19.13643797 401.49097808 15.24330462 405.86019062 11 410 C10.15888672 410.87398438 10.15888672 410.87398438 9.30078125 411.765625 C4.73991525 416.46525975 -0.09866685 420.61329371 -5.20703125 424.70703125 C-7.91502094 426.93023397 -10.49047467 429.24678506 -13.0625 431.625 C-24.21101304 441.73110057 -32.95381042 446.79955836 -48.1015625 446.27734375 C-60.70674038 445.3805826 -71.60778406 439.14789904 -80.1484375 429.95703125 C-81.96125817 428.04094864 -83.85139038 426.37652875 -85.875 424.6875 C-92.82909059 418.68602456 -98.73123413 411.62193317 -104.5 404.5 C-105.99885816 402.66573302 -107.49887277 400.83241048 -109 399 C-109.76828125 398.04609375 -110.5365625 397.0921875 -111.328125 396.109375 C-116.60217684 389.88259121 -121.60787463 386.21339974 -128.92578125 382.63671875 C-133.20480069 380.35856228 -136.57800751 377.4013158 -140 374 C-140.33 374.66 -140.66 375.32 -141 376 C-145.46403536 376.55800442 -148.12374712 376.32616162 -151.875 373.75 C-174.01229974 355.26684186 -180.89741643 323.62572065 -187 297 C-188.15757812 297.42152344 -189.31515625 297.84304688 -190.5078125 298.27734375 C-192.04677892 298.8309963 -193.58584683 299.38436683 -195.125 299.9375 C-195.88554687 300.21529297 -196.64609375 300.49308594 -197.4296875 300.77929688 C-198.17734375 301.04677734 -198.925 301.31425781 -199.6953125 301.58984375 C-200.37609863 301.83597412 -201.05688477 302.08210449 -201.75830078 302.33569336 C-206.51572453 303.74551149 -211.11197839 304.12313413 -216.0546875 304.09765625 C-217.16328125 304.09443359 -218.271875 304.09121094 -219.4140625 304.08789062 C-220.55617187 304.07951172 -221.69828125 304.07113281 -222.875 304.0625 C-224.0403125 304.05798828 -225.205625 304.05347656 -226.40625 304.04882812 C-229.27088645 304.03708781 -232.13541633 304.0206657 -235 304 C-235.33 302.68 -235.66 301.36 -236 300 C-236.99 300 -237.98 300 -239 300 C-239 298.35 -239 296.7 -239 295 C-238.34 295 -237.68 295 -237 295 C-237 294.01 -237 293.02 -237 292 C-235.71484375 290.6496582 -235.71484375 290.6496582 -233.9375 289.30078125 C-232.99003906 288.57084961 -232.99003906 288.57084961 -232.0234375 287.82617188 C-231.02183594 287.0769043 -231.02183594 287.0769043 -230 286.3125 C-229.33226562 285.80138672 -228.66453125 285.29027344 -227.9765625 284.76367188 C-226.32409478 283.5007144 -224.6628489 282.24925765 -223 281 C-223.98742187 280.96261719 -224.97484375 280.92523438 -225.9921875 280.88671875 C-227.91417969 280.78810547 -227.91417969 280.78810547 -229.875 280.6875 C-231.15117187 280.62949219 -232.42734375 280.57148438 -233.7421875 280.51171875 C-234.81726563 280.34285156 -235.89234375 280.17398437 -237 280 C-239.36086122 276.45870816 -239.57269578 275.17249782 -239 271 C-236.47295712 267.28840577 -233.73697206 264.7826037 -230.25 262 C-212.7081582 246.8697485 -206.81450099 219.8572949 -204 198 C-204.99 198.33 -205.98 198.66 -207 199 C-209.57265818 199.07029121 -212.11641431 199.09370832 -214.6875 199.0625 C-215.38939453 199.05798828 -216.09128906 199.05347656 -216.81445312 199.04882812 C-218.54300538 199.03706927 -220.27151365 199.01913454 -222 199 C-222 198.01 -222 197.02 -222 196 C-222.99 196 -223.98 196 -225 196 C-224.77366027 185.13569289 -214.394913 178.30355488 -207.15576172 171.19140625 C-206.52041504 170.56492188 -205.88506836 169.9384375 -205.23046875 169.29296875 C-204.65707764 168.7311792 -204.08368652 168.16938965 -203.49291992 167.59057617 C-200.03441213 163.90583729 -199.66340428 161.2796426 -199.32421875 156.3671875 C-199.22107181 155.00222601 -199.11720001 153.63731915 -199.01269531 152.27246094 C-198.96036743 151.55537964 -198.90803955 150.83829834 -198.85412598 150.0994873 C-196.12163267 113.62020123 -187.79328607 78.66612789 -164.38671875 49.72167969 C-163.07662893 48.0951386 -161.79906728 46.4486561 -160.53125 44.7890625 C-156.61142173 39.71884984 -156.61142173 39.71884984 -155 38 C-154.34 38 -153.68 38 -153 38 C-153 37.34 -153 36.68 -153 36 C-150.53446793 33.4518244 -147.72159391 31.2687422 -145 29 C-144.31035156 28.38898437 -143.62070313 27.77796875 -142.91015625 27.1484375 C-123.70776427 10.74709743 -96.76428515 -1.33620765 -71.34375 -2.31640625 C-70.25376709 -2.35862305 -69.16378418 -2.40083984 -68.04077148 -2.44433594 C-18.37516479 -4.10179671 -18.37516479 -4.10179671 0 0 Z M-46.13916016 2.05859375 C-49.86892573 2.11192082 -53.59803338 2.18327637 -57.32727051 2.26547241 C-58.79341658 2.29631905 -60.25965334 2.32316991 -61.72595215 2.34561157 C-92.86299226 2.85237483 -123.51150862 15.26305203 -146 37 C-146.825 37.78375 -147.65 38.5675 -148.5 39.375 C-149.7375 40.674375 -149.7375 40.674375 -151 42 C-151.54785156 42.56460938 -152.09570312 43.12921875 -152.66015625 43.7109375 C-176.31414716 69.06490722 -187.405302 100.30518668 -192.0625 134.125 C-192.24167969 135.40511963 -192.42085937 136.68523926 -192.60546875 138.00415039 C-193.69209348 145.99925536 -194.45914075 153.8663716 -194.53125 161.93359375 C-195.33802098 167.21122058 -198.36958013 170.84264997 -202.5 174.0625 C-205.44338761 176.46220455 -207.63281693 179.02193098 -210 182 C-211.010625 182.825 -212.02125 183.65 -213.0625 184.5 C-215.85980716 186.88068694 -217.40697592 188.7254505 -219 192 C-219 192.66 -219 193.32 -219 194 C-216.45749979 193.88525534 -213.91652662 193.7585303 -211.375 193.625 C-210.30572266 193.57859375 -210.30572266 193.57859375 -209.21484375 193.53125 C-204.82847392 193.28979845 -201.1405166 192.60657269 -197 191 C-201.81613732 220.87571362 -207.59509802 251.75125749 -232.56640625 271.66015625 C-233.03949219 272.10230469 -233.51257813 272.54445313 -234 273 C-234 273.66 -234 274.32 -234 275 C-222.44929431 275.37871166 -212.35421325 273.17710662 -202 268 C-202 268.66 -202 269.32 -202 270 C-202.66 270 -203.32 270 -204 270 C-205.49825323 271.52029885 -205.49825323 271.52029885 -207.0625 273.5 C-213.63024532 281.1893973 -221.35204827 287.13603389 -229.59375 292.921875 C-232.15764987 295.13615216 -232.40818504 295.83428592 -233 299 C-214.50967785 299.71652486 -198.04681147 296.99305046 -182 287 C-182.04125 287.99 -182.0825 288.98 -182.125 290 C-182.125 293.41648269 -181.47403265 296.42678563 -180.56054688 299.72631836 C-179.91941223 302.32687886 -179.54150864 304.91597774 -179.15625 307.56640625 C-178.14839211 313.71116352 -176.46854105 319.39576407 -174.375 325.25 C-174.02308594 326.24290039 -173.67117187 327.23580078 -173.30859375 328.25878906 C-168.06808049 342.68885003 -161.24077715 359.07504555 -149 369 C-146.32209104 369.87238858 -146.32209104 369.87238858 -144 370 C-144 367.69 -144 365.38 -144 363 C-143.34 363 -142.68 363 -142 363 C-141.75636719 363.57878906 -141.51273437 364.15757812 -141.26171875 364.75390625 C-137.68696448 371.11763289 -130.08870771 376.13601242 -124 380 C-123.175 380.144375 -122.35 380.28875 -121.5 380.4375 C-113.61835658 382.21086977 -107.36453624 391.93249352 -102.6875 398 C-102.130625 398.66 -101.57375 399.32 -101 400 C-100.34 400 -99.68 400 -99 400 C-98.89510254 400.58934326 -98.79020508 401.17868652 -98.68212891 401.78588867 C-97.89718524 404.3337248 -96.91660883 405.50580217 -95.0859375 407.42578125 C-94.48910156 408.05806641 -93.89226562 408.69035156 -93.27734375 409.34179688 C-92.33568359 410.31729492 -92.33568359 410.31729492 -91.375 411.3125 C-90.77042969 411.95123047 -90.16585937 412.58996094 -89.54296875 413.24804688 C-87.70840235 415.17844883 -85.85642614 417.09063026 -84 419 C-83.35579102 419.67337402 -82.71158203 420.34674805 -82.04785156 421.04052734 C-81.42620117 421.68070801 -80.80455078 422.32088867 -80.1640625 422.98046875 C-79.60412598 423.56078857 -79.04418945 424.1411084 -78.46728516 424.73901367 C-77.06964452 426.21725936 -77.06964452 426.21725936 -75 426 C-74.78472656 426.57621094 -74.56945312 427.15242188 -74.34765625 427.74609375 C-70.67264079 433.89242396 -61.45392791 438.69526087 -54.609375 440.59375 C-46.00291361 441.93367812 -36.61140377 442.72950839 -29.11328125 437.66015625 C-28.41589844 437.11230469 -27.71851563 436.56445312 -27 436 C-26.18917969 435.37996094 -25.37835938 434.75992187 -24.54296875 434.12109375 C-21.6379962 431.81157678 -18.81522847 429.41685518 -16 427 C-14.77223058 425.95952311 -13.54436104 424.91916436 -12.31640625 423.87890625 C-1.14227418 414.47348739 -1.14227418 414.47348739 9 404 C9 403.34 9 402.68 9 402 C9.53496094 401.80148437 10.06992188 401.60296875 10.62109375 401.3984375 C14.06032231 399.37669066 16.41356931 396.57620131 19.0625 393.625 C19.59166016 393.0475 20.12082031 392.47 20.66601562 391.875 C22.78216782 389.54909119 24.80191988 387.27969867 26.62109375 384.7109375 C28.24850838 382.69165249 29.64554896 382.0483641 32 381 C39.65688796 376.3450353 45.21056223 370.81659609 51 364 C51 367.96 51 371.92 51 376 C54.76891806 375.05777049 55.52979446 374.85124589 58.05859375 372.33984375 C58.60749268 371.79690674 59.1563916 371.25396973 59.72192383 370.69458008 C60.28806396 370.11474365 60.8542041 369.53490723 61.4375 368.9375 C62.01717529 368.35057373 62.59685059 367.76364746 63.1940918 367.15893555 C70.03299748 360.53407787 70.03299748 360.53407787 73 352 C73.66 352 74.32 352 75 352 C75.66 354.64 76.32 357.28 77 360 C80.94425874 359.44942659 80.94425874 359.44942659 82.40039062 357.20922852 C82.81482422 356.44022217 83.22925781 355.67121582 83.65625 354.87890625 C84.12160156 354.02490234 84.58695312 353.17089844 85.06640625 352.29101562 C85.53949219 351.39060547 86.01257813 350.49019531 86.5 349.5625 C86.97308594 348.69689453 87.44617188 347.83128906 87.93359375 346.93945312 C90.66679859 341.85538927 92.97947268 336.74021274 95.04858398 331.35449219 C95.94943658 329.12513051 96.96066788 327.02046253 98.06640625 324.88671875 C101.62682119 317.94139004 103.72660536 310.44139376 106 303 C106.24991699 302.22027832 106.49983398 301.44055664 106.75732422 300.63720703 C113.83351685 278.10844304 112.68910697 252.93367501 108 230 C107.68095703 228.37191406 107.68095703 228.37191406 107.35546875 226.7109375 C107.03188397 225.09534157 106.69540457 223.48211454 106.33203125 221.875 C106 220 106 220 106 216 C106.66644531 216.71285156 107.33289063 217.42570313 108.01953125 218.16015625 C117.8531733 229.02313278 117.8531733 229.02313278 130.8203125 234.17578125 C131.89925781 234.08876953 131.89925781 234.08876953 133 234 C133.22473807 229.52093731 132.65176354 226.4561377 130.875 222.3515625 C130.41939697 221.27567871 129.96379395 220.19979492 129.49438477 219.09130859 C129.00123779 217.94742676 128.50809082 216.80354492 128 215.625 C124.233593 206.63014137 120.65527871 197.62761342 117.5625 188.375 C117.10520508 187.03042725 117.10520508 187.03042725 116.63867188 185.65869141 C111.20023696 169.07626706 108.63062286 152.09402245 106.14819336 134.87646484 C102.48170912 109.61367795 97.23400144 85.5965484 85 63 C84.25943359 61.62714844 84.25943359 61.62714844 83.50390625 60.2265625 C66.23461742 29.99307668 39.31157479 15.79415775 6.7265625 6.80859375 C-11.04684592 2.05781316 -27.88831161 1.80656097 -46.13916016 2.05859375 Z " fill="#898887" transform="translate(240,21)"/>
<path d="M0 0 C4.05338559 4.82024232 5.12934225 8.81520766 5.11352539 14.95214844 C5.11344986 15.93286316 5.11337433 16.91357788 5.11329651 17.92401123 C5.10813522 18.97518127 5.10297394 20.02635132 5.09765625 21.109375 C5.09553383 22.73229462 5.09553383 22.73229462 5.09336853 24.38800049 C5.08777318 27.8420285 5.0752215 31.29599159 5.0625 34.75 C5.0574844 37.09244698 5.0529216 39.43489498 5.04882812 41.77734375 C5.03780528 47.5182513 5.02107174 53.25912101 5 59 C-4.6823184 58.52830106 -14.3630159 58.04660563 -24.03979492 57.47143555 C-49.13265615 56.01179083 -74.15329006 55.71944328 -99.28405762 55.80438232 C-103.34956823 55.81527984 -107.4150462 55.81480497 -111.48056889 55.81437206 C-146.98931911 55.7200823 -146.98931911 55.7200823 -182.4375 57.5625 C-191.27348447 58.28288599 -200.14217597 58.08020163 -209 58 C-208.125 53.125 -208.125 53.125 -207 52 C-204.20894075 51.55030086 -201.42026725 51.14241788 -198.62109375 50.75 C-188.53242256 49.23892202 -178.85477157 46.8237032 -169.0625 44 C-167.80481812 43.6411824 -167.80481812 43.6411824 -166.52172852 43.27511597 C-141.69938471 36.15984286 -115.88672539 27.49990747 -94.515625 12.63671875 C-92 11 -92 11 -89.625 11.25 C-89.08875 11.4975 -88.5525 11.745 -88 12 C-90.46069977 16.60081541 -93.6796023 20.07208336 -97.25 23.8125 C-98.41622998 25.04996624 -99.58160039 26.28824315 -100.74609375 27.52734375 C-101.30538574 28.12144043 -101.86467773 28.71553711 -102.44091797 29.32763672 C-105.37800055 32.47812461 -108.20309932 35.72508356 -111 39 C-77.38042281 31.88663792 -45.88402017 20.40005936 -15.33984375 4.6171875 C-14.69184814 4.28291748 -14.04385254 3.94864746 -13.3762207 3.60424805 C-11.79675064 2.77740989 -10.22957196 1.92719422 -8.6640625 1.07421875 C-5.53690234 -0.18673293 -3.34145411 -0.40658253 0 0 Z " fill="#CECECD" transform="translate(300,140)"/>
<path d="M0 0 C-1.8411348 4.45483916 -3.81170931 8.62387622 -6.25 12.79296875 C-6.8584375 13.83517578 -7.466875 14.87738281 -8.09375 15.95117188 C-8.7228125 17.01916016 -9.351875 18.08714844 -10 19.1875 C-10.94359375 20.80688477 -10.94359375 20.80688477 -11.90625 22.45898438 C-16.60643844 30.4801746 -16.60643844 30.4801746 -18.671875 33.20825195 C-20.12305182 34.92290075 -20.12305182 34.92290075 -20.5 37.0625 C-21.11901124 39.46116857 -22.2375104 40.31094747 -24 42 C-24.33 42.99 -24.66 43.98 -25 45 C-25.66 45 -26.32 45 -27 45 C-27.268125 45.86625 -27.53625 46.7325 -27.8125 47.625 C-28.97111987 50.91791964 -30.38209839 53.91127875 -32 57 C-32.66 57 -33.32 57 -34 57 C-34.25265625 57.68707031 -34.5053125 58.37414062 -34.765625 59.08203125 C-36.1848452 62.43696002 -37.92228041 65.54479896 -39.75 68.6875 C-40.40484375 69.82574219 -41.0596875 70.96398437 -41.734375 72.13671875 C-43.89942834 75.85061043 -46.11881211 79.53114973 -48.3359375 83.21411133 C-50.15302468 86.25618612 -51.94071236 89.31449017 -53.7265625 92.375 C-55.02592923 94.58339949 -56.32540972 96.79173205 -57.625 99 C-58.27984375 100.13050781 -58.9346875 101.26101563 -59.609375 102.42578125 C-60.24617188 103.50214844 -60.88296875 104.57851563 -61.5390625 105.6875 C-62.10834473 106.66074219 -62.67762695 107.63398438 -63.26416016 108.63671875 C-65.04250673 111.05787133 -66.22323277 111.96013754 -69 113 C-77.58674821 97.47077451 -81.8636051 81.25617661 -84.56201172 63.8046875 C-84.98376584 61.10395652 -85.44568148 58.41240302 -85.91015625 55.71875 C-88.72749605 38.22192253 -88.29527128 20.66327913 -88 3 C-80.95812962 1.39644729 -73.69014655 1.32528923 -66.5 0.9375 C-65.68529236 0.89264465 -64.87058472 0.84778931 -64.03118896 0.80157471 C-42.69714499 -0.34193873 -21.35671746 -0.19213656 0 0 Z " fill="#FDA20F" transform="translate(170,196)"/>
<path d="M0 0 C0.5625 1.9375 0.5625 1.9375 1 4 C-0.73380948 5.73380948 -3.14444776 5.29393134 -5.51171875 5.4296875 C-6.65560059 5.50106934 -7.79948242 5.57245117 -8.97802734 5.64599609 C-10.20215332 5.72156738 -11.4262793 5.79713867 -12.6875 5.875 C-22.39760457 6.53903607 -31.60419176 7.36867722 -41 10 C-42.00675781 10.25265625 -43.01351562 10.5053125 -44.05078125 10.765625 C-65.76799556 16.71554673 -89.17524775 29.7967471 -103.1875 47.8125 C-103.785625 48.534375 -104.38375 49.25625 -105 50 C-105.66 50 -106.32 50 -107 50 C-107.27763184 50.5868457 -107.55526367 51.17369141 -107.84130859 51.77832031 C-108.93505646 53.87547699 -110.12383697 55.65680746 -111.5390625 57.546875 C-129.30259967 81.69300687 -137.98941051 107.55895807 -142.0625 137.125 C-142.24240479 138.40584473 -142.42230957 139.68668945 -142.60766602 141.00634766 C-143.53498897 147.81016487 -144.2369519 154.5133899 -144.4375 161.375 C-144.73247576 167.61641888 -145.56236135 170.56236135 -150 175 C-151.97956942 176.69088222 -153.97945196 178.35830472 -156 180 C-157.67067133 181.99665598 -159.33752986 183.99651034 -161 186 C-161.845625 186.639375 -162.69125 187.27875 -163.5625 187.9375 C-165.83995984 189.86458141 -166.75770487 191.0843537 -168.15234375 193.62890625 C-168.76207031 194.74136719 -169.37179688 195.85382813 -170 197 C-167.35346869 196.69268013 -164.707885 196.37940678 -162.0625 196.0625 C-161.30775391 195.97548828 -160.55300781 195.88847656 -159.77539062 195.79882812 C-156.07812542 195.65675901 -156.07812542 195.65675901 -153 194 C-151.33382885 193.95936168 -149.66611905 193.957279 -148 194 C-148.03503848 202.81217799 -149.76163781 211.03073618 -151.8125 219.5625 C-152.06080566 220.60204834 -152.30911133 221.64159668 -152.56494141 222.71264648 C-157.31490539 241.93170827 -164.88309072 260.87677552 -181.125 273.3125 C-184.4012083 275.79205297 -184.4012083 275.79205297 -184.4375 279.875 C-184.293125 280.90625 -184.14875 281.9375 -184 283 C-185.32 283 -186.64 283 -188 283 C-190.36086122 279.45870816 -190.57269578 278.17249782 -190 274 C-187.47295712 270.28840577 -184.73697206 267.7826037 -181.25 265 C-163.7081582 249.8697485 -157.81450099 222.8572949 -155 201 C-155.99 201.33 -156.98 201.66 -158 202 C-160.57265818 202.07029121 -163.11641431 202.09370832 -165.6875 202.0625 C-166.38939453 202.05798828 -167.09128906 202.05347656 -167.81445312 202.04882812 C-169.54300538 202.03706927 -171.27151365 202.01913454 -173 202 C-173 201.01 -173 200.02 -173 199 C-173.99 199 -174.98 199 -176 199 C-175.77366027 188.13569289 -165.394913 181.30355488 -158.15576172 174.19140625 C-157.52041504 173.56492188 -156.88506836 172.9384375 -156.23046875 172.29296875 C-155.65707764 171.7311792 -155.08368652 171.16938965 -154.49291992 170.59057617 C-151.03441213 166.90583729 -150.66340428 164.2796426 -150.32421875 159.3671875 C-150.22107181 158.00222601 -150.11720001 156.63731915 -150.01269531 155.27246094 C-149.96036743 154.55537964 -149.90803955 153.83829834 -149.85412598 153.0994873 C-147.12163267 116.62020123 -138.79328607 81.66612789 -115.38671875 52.72167969 C-114.07662893 51.0951386 -112.79906728 49.4486561 -111.53125 47.7890625 C-107.61142173 42.71884984 -107.61142173 42.71884984 -106 41 C-105.34 41 -104.68 41 -104 41 C-104 40.34 -104 39.68 -104 39 C-101.53446793 36.4518244 -98.72159391 34.2687422 -96 32 C-95.31035156 31.38898437 -94.62070313 30.77796875 -93.91015625 30.1484375 C-74.35277189 13.44388777 -47.14266681 1.51375536 -21.2890625 0.68359375 C-20.04511719 0.64169922 -18.80117187 0.59980469 -17.51953125 0.55664062 C-16.23433594 0.51732422 -14.94914063 0.47800781 -13.625 0.4375 C-12.31660156 0.39431641 -11.00820312 0.35113281 -9.66015625 0.30664062 C-6.44020203 0.20087571 -3.22017469 0.09878421 0 0 Z " fill="#8E8D8C" transform="translate(191,18)"/>
<path d="M0 0 C0.33 0 0.66 0 1 0 C1.01401855 1.35472412 1.01401855 1.35472412 1.02832031 2.73681641 C1.29992935 23.81314532 2.74473782 44.15767977 6 65 C6.3416824 67.33227035 6.67238015 69.66570856 7 72 C6.36835937 72.21914063 5.73671875 72.43828125 5.0859375 72.6640625 C-1.69191436 75.06658636 -8.27144976 77.80386304 -14.8359375 80.73046875 C-17.59864368 81.83896197 -20.0700531 82.54459627 -23 83 C-25.51940758 77.36264427 -26.06764152 71.59765722 -26.85986328 65.51953125 C-27.12075061 63.53236734 -27.39813275 61.54739141 -27.67578125 59.5625 C-31.10182294 33.80278803 -31.10182294 33.80278803 -23.875 22.75 C-17.70725265 16.85041558 -8.6306347 12 0 12 C0 8.04 0 4.08 0 0 Z " fill="#4C4243" transform="translate(81,199)"/>
<path d="M0 0 C0.99 0 1.98 0 3 0 C3.72879917 31.04011729 2.8955059 60.18592097 -7.28564453 89.90136719 C-7.97192233 91.91751346 -8.6136016 93.94300597 -9.24609375 95.9765625 C-11.67804564 103.42391682 -14.65142281 110.15294081 -20 116 C-20.66 116 -21.32 116 -22 116 C-22.226875 116.5775 -22.45375 117.155 -22.6875 117.75 C-26.02917705 123.47858923 -32.88458313 126.58390142 -38.75 129.25 C-43.49697425 130.3454556 -48.15061329 130.15531844 -53 130 C-52.41478927 125.8816086 -51.06061958 123.03929282 -48.90234375 119.5 C-48.26490234 118.44683594 -47.62746094 117.39367187 -46.97070312 116.30859375 C-46.29974609 115.21675781 -45.62878906 114.12492187 -44.9375 113 C-44.29361328 111.93910156 -43.64972656 110.87820313 -42.98632812 109.78515625 C-40.35176619 105.45113114 -37.69884497 101.12881685 -35.02905273 96.81640625 C-29.95552475 88.61544695 -25.04627019 80.32901516 -20.1875 72 C-19.05986614 70.07002524 -17.93181208 68.14029688 -16.80354309 66.21069336 C-15.79303317 64.48202809 -14.78356703 62.75275279 -13.77416992 61.0234375 C-12.63658587 59.08483272 -11.48915585 57.15195243 -10.3293457 55.2265625 C-9.00224227 53.06658707 -9.00224227 53.06658707 -8 51 C-7.34 51 -6.68 51 -6 51 C-5.81630859 50.14148438 -5.81630859 50.14148438 -5.62890625 49.265625 C-4.97237132 46.90046809 -4.06276488 44.92793203 -2.9375 42.75 C-2.57527344 42.04359375 -2.21304688 41.3371875 -1.83984375 40.609375 C-1.56269531 40.07828125 -1.28554688 39.5471875 -1 39 C-0.34 39 0.32 39 1 39 C1.33 26.46 1.66 13.92 2 1 C1.34 0.67 0.68 0.34 0 0 Z " fill="#EC8A16" transform="translate(309,199)"/>
<path d="M0 0 C10.30162823 1.3902373 19.75603162 4.63919784 26.375 13 C28.879389 17.62348739 29.12708723 21.76262214 29.1328125 26.96484375 C29.13474609 28.65963867 29.13474609 28.65963867 29.13671875 30.38867188 C29.13285156 31.55978516 29.12898438 32.73089844 29.125 33.9375 C29.13080078 35.68836914 29.13080078 35.68836914 29.13671875 37.47460938 C29.13542969 38.60576172 29.13414062 39.73691406 29.1328125 40.90234375 C29.13168457 41.92835693 29.13055664 42.95437012 29.12939453 44.01147461 C28.99657973 47.07899527 28.56609771 49.98484103 28 53 C27.67 53 27.34 53 27 53 C27 50.69 27 48.38 27 46 C26.23300781 45.75894531 25.46601563 45.51789063 24.67578125 45.26953125 C19.7728946 43.5761857 14.98284589 41.66243823 10.1875 39.6875 C9.22134766 39.30916016 8.25519531 38.93082031 7.25976562 38.54101562 C6.34259766 38.16009766 5.42542969 37.77917969 4.48046875 37.38671875 C3.64410889 37.04858154 2.80774902 36.71044434 1.94604492 36.36206055 C0 35 0 35 -0.78759766 32.79150391 C-1.03953654 29.48038988 -1.00602785 26.26850502 -0.87890625 22.94921875 C-0.85529526 22.29041214 -0.83168427 21.63160553 -0.80735779 20.95283508 C-0.73124327 18.86414178 -0.64699771 16.77586926 -0.5625 14.6875 C-0.50922687 13.26499403 -0.45648689 11.84246799 -0.40429688 10.41992188 C-0.27570006 6.94636091 -0.13981289 3.47312966 0 0 Z " fill="#3A3435" transform="translate(312,211)"/>
<path d="M0 0 C0.91652344 0.01160156 1.83304687 0.02320313 2.77734375 0.03515625 C3.69644531 0.04417969 4.61554688 0.05320313 5.5625 0.0625 C6.27277344 0.07410156 6.98304688 0.08570313 7.71484375 0.09765625 C1.91640355 10.14284138 -4.05327453 20.08361918 -10.03637695 30.01953125 C-11.01945225 31.65549155 -11.99542509 33.29571994 -12.96875 34.9375 C-14.27807886 37.08604261 -15.66875259 39.15212367 -17.09765625 41.22265625 C-19.20068461 44.35678103 -21.08849767 47.50949388 -22.84765625 50.84765625 C-26.46808829 57.65290685 -30.60013498 64.13902215 -34.70336914 70.66113281 C-37.45805274 75.0585549 -40.03229319 79.4159252 -42.28515625 84.09765625 C-43.03376617 85.36109094 -43.80269017 86.61286357 -44.59765625 87.84765625 C-46.06498961 90.13953344 -47.47988445 92.43659123 -48.8359375 94.796875 C-49.35542969 95.70050781 -49.87492187 96.60414063 -50.41015625 97.53515625 C-50.88710937 98.37949219 -51.3640625 99.22382813 -51.85546875 100.09375 C-53.28515625 102.09765625 -53.28515625 102.09765625 -56.28515625 103.09765625 C-59.02380912 103.16816739 -61.73543213 103.1912339 -64.47265625 103.16015625 C-65.22224609 103.15564453 -65.97183594 103.15113281 -66.74414062 103.14648438 C-68.59118008 103.13471979 -70.43817838 103.1167849 -72.28515625 103.09765625 C-72.28515625 102.76765625 -72.28515625 102.43765625 -72.28515625 102.09765625 C-71.63289062 102.15308594 -70.980625 102.20851563 -70.30859375 102.265625 C-67.3281597 102.2876046 -65.10613706 102.09155504 -62.28515625 101.09765625 C-59.53291802 97.77964742 -57.99257969 94.03147682 -56.28515625 90.09765625 C-55.514919 88.62789205 -54.72444108 87.16848212 -53.91015625 85.72265625 C-53.52778809 85.03816406 -53.14541992 84.35367188 -52.75146484 83.6484375 C-51.10698095 80.78770361 -49.380489 77.98735587 -47.640625 75.18359375 C-43.32835482 68.20740203 -39.14137732 61.16026015 -34.97265625 54.09765625 C-33.91624368 52.31040289 -32.85950702 50.52334152 -31.8026886 48.73632812 C-30.85710793 47.13703056 -29.91229254 45.53728059 -28.9675293 43.9375 C-27.41600956 41.31853649 -25.85129609 38.70788931 -24.28515625 36.09765625 C-23.33161009 34.48409003 -22.37984148 32.86947229 -21.4296875 31.25390625 C-3.1019709 0.13256286 -3.1019709 0.13256286 0 0 Z " fill="#F08D15" transform="translate(262.28515625,195.90234375)"/>
<path d="M0 0 C0.14695312 0.99966797 0.14695312 0.99966797 0.296875 2.01953125 C1.30101599 8.20884857 2.84847173 13.7741325 5.1953125 19.58984375 C6 22 6 22 6 26 C5.30132812 26.27714844 4.60265625 26.55429687 3.8828125 26.83984375 C2.97273438 27.20207031 2.06265625 27.56429688 1.125 27.9375 C0.22007813 28.29714844 -0.68484375 28.65679687 -1.6171875 29.02734375 C-3.96137667 29.94901262 -3.96137667 29.94901262 -6 31 C-11.91451255 31.57184514 -17.1836692 31.97303436 -22.5 29.125 C-25.99634425 25.43909492 -28.01047781 20.61338479 -30 16 C-30.59554687 14.700625 -30.59554687 14.700625 -31.203125 13.375 C-32 11 -32 11 -31 8 C-30.67 8.33 -30.34 8.66 -30 9 C-22.26874146 6.63186675 -15.11288178 3.76037197 -7.91015625 0.07421875 C-4.71454117 -1.10537071 -3.20292192 -1.00865497 0 0 Z " fill="#3F3838" transform="translate(89,272)"/>
<path d="M0 0 C0.33 0 0.66 0 1 0 C1.08564209 0.69037354 1.17128418 1.38074707 1.25952148 2.09204102 C1.65152048 5.2489431 2.04450217 8.40572211 2.4375 11.5625 C2.57220703 12.64853516 2.70691406 13.73457031 2.84570312 14.85351562 C3.51737552 20.24327704 4.20597367 25.6268315 5 31 C4.36835937 31.21914063 3.73671875 31.43828125 3.0859375 31.6640625 C-3.69191436 34.06658636 -10.27144976 36.80386304 -16.8359375 39.73046875 C-19.59864368 40.83896197 -22.0700531 41.54459627 -25 42 C-28.88566251 33.96963081 -28.13245016 24.69756068 -28 16 C-27.04480469 15.62488281 -26.08960938 15.24976563 -25.10546875 14.86328125 C-17.99841296 12.055123 -10.98001173 9.16538674 -4.07421875 5.8828125 C-2 5 -2 5 0 5 C0 3.35 0 1.7 0 0 Z " fill="#4D4445" transform="translate(83,240)"/>
<path d="M0 0 C3.54991306 0.59900842 6.54811143 1.55211126 9.8125 3.0625 C10.99779297 3.60583984 10.99779297 3.60583984 12.20703125 4.16015625 C12.79871094 4.43730469 13.39039063 4.71445312 14 5 C14 5.66 14 6.32 14 7 C12.9275 7.2475 11.855 7.495 10.75 7.75 C6.91165441 9.02944853 5.24597224 9.67596108 3 13 C2.52292469 16.74844884 2.79132045 19.34613743 3.9375 22.9375 C6.34277966 25.34277966 7.1353732 25.4240482 10.4375 25.625 C13.86612386 25.41838912 14.79686278 25.16350069 17.5625 22.9375 C19.37781677 19.22793965 19.65622237 17.08316143 19 13 C16.64581624 10.06026719 16.64581624 10.06026719 14 8 C14.33 7.34 14.66 6.68 15 6 C15.59167969 6.20496094 16.18335938 6.40992188 16.79296875 6.62109375 C17.58316406 6.89050781 18.37335938 7.15992188 19.1875 7.4375 C20.35345703 7.83775391 20.35345703 7.83775391 21.54296875 8.24609375 C24.01309856 9.00401911 26.45992864 9.53529778 29 10 C28.52129086 12.08343851 28.04201531 14.16674689 27.5625 16.25 C27.29566406 17.41015625 27.02882813 18.5703125 26.75390625 19.765625 C26.50511719 20.83296875 26.25632812 21.9003125 26 23 C25.81050781 24.13115234 25.81050781 24.13115234 25.6171875 25.28515625 C24.253265 29.07478903 19.38161661 30.30919169 16 32 C13.95944995 32.07065617 11.91665743 32.08421976 9.875 32.0625 C8.77929688 32.05347656 7.68359375 32.04445313 6.5546875 32.03515625 C5.71164062 32.02355469 4.86859375 32.01195312 4 32 C3.67 32.66 3.34 33.32 3 34 C3 32.68 3 31.36 3 30 C2.0925 29.87625 1.185 29.7525 0.25 29.625 C-2.58970323 29.07890323 -4.52590591 28.42736197 -7 27 C-6.3436874 20.94364701 -4.73971507 15.37056667 -2.9375 9.5625 C-2.51500977 8.17901367 -2.51500977 8.17901367 -2.08398438 6.76757812 C-1.39392401 4.51026202 -0.69916877 2.25450816 0 0 Z " fill="#3F3738" transform="translate(306,271)"/>
<path d="M0 0 C8.28376137 -0.35001809 14.98591398 0.32394266 22 5 C22 5.66 22 6.32 22 7 C23.32 7.66 24.64 8.32 26 9 C26.05425013 11.87525669 26.09379277 14.74947646 26.125 17.625 C26.14175781 18.43324219 26.15851563 19.24148437 26.17578125 20.07421875 C26.21420986 24.80093815 25.82737094 28.55387702 24 33 C22.00045254 33.04254356 19.99958364 33.04080783 18 33 C17.505 32.505 17.505 32.505 17 32 C17.12181641 30.68322266 17.12181641 30.68322266 17.24609375 29.33984375 C17.46851146 25.38625541 17.37767626 22.73694685 16 19 C11.4736984 15.08195443 5.53915987 13.06703711 0 11 C0 7.37 0 3.74 0 0 Z " fill="#4D4344" transform="translate(313,218)"/>
<path d="M0 0 C0.92425781 -0.01611328 1.84851563 -0.03222656 2.80078125 -0.04882812 C3.70183594 -0.04947266 4.60289062 -0.05011719 5.53125 -0.05078125 C6.74651367 -0.05525269 6.74651367 -0.05525269 7.98632812 -0.05981445 C10.5 0.3125 10.5 0.3125 16.5 3.3125 C15.84 8.5925 15.18 13.8725 14.5 19.3125 C10.5 17.3125 10.5 17.3125 8.5703125 16.2421875 C4.41481436 13.98920658 1.30217725 12.35206455 -3.5 13.3125 C-6.19998042 14.75861954 -8.76553053 16.32266544 -11.328125 18 C-13.5 19.3125 -13.5 19.3125 -15.5 19.3125 C-15.83 13.7025 -16.16 8.0925 -16.5 2.3125 C-10.46800267 0.30183422 -6.21114387 -0.02165671 0 0 Z " fill="#685F5F" transform="translate(197.5,298.6875)"/>
<path d="M0 0 C0.33 0 0.66 0 1 0 C1.02505615 0.55461914 1.0501123 1.10923828 1.07592773 1.68066406 C1.19227927 4.20398843 1.31482754 6.72697536 1.4375 9.25 C1.47681641 10.12269531 1.51613281 10.99539062 1.55664062 11.89453125 C1.59853516 12.73886719 1.64042969 13.58320313 1.68359375 14.453125 C1.72025146 15.22817383 1.75690918 16.00322266 1.79467773 16.80175781 C1.99603015 18.9574976 2.41729297 20.91801475 3 23 C4.98 23 6.96 23 9 23 C8.979375 22.11957031 8.95875 21.23914063 8.9375 20.33203125 C9.1022921 11.05217635 9.1022921 11.05217635 11.56640625 8.1640625 C13.65965975 6.87779714 15.72472475 5.92420819 18 5 C19.46134761 4.23489654 20.9198348 3.46429751 22.375 2.6875 C26 1 26 1 28 1 C28.85555773 4.9569545 29.0551521 8.69997635 29.03125 12.73046875 C29.02673828 13.71813232 29.02222656 14.7057959 29.01757812 15.72338867 C29.01177734 16.47467041 29.00597656 17.22595215 29 18 C25.46378819 19.65773949 21.92017608 21.29902959 18.375 22.9375 C17.37597656 23.40607422 16.37695312 23.87464844 15.34765625 24.35742188 C14.37441406 24.80537109 13.40117188 25.25332031 12.3984375 25.71484375 C11.50817871 26.12855225 10.61791992 26.54226074 9.70068359 26.96850586 C6.80330233 28.07512635 4.0674332 28.58851506 1 29 C1 31.64 1 34.28 1 37 C0.67 37 0.34 37 0 37 C-3.64788732 9.80369718 -3.64788732 9.80369718 0 0 Z " fill="#3A3435" transform="translate(54,227)"/>
<path d="M0 0 C1.19399414 0.00483398 1.19399414 0.00483398 2.41210938 0.00976562 C3.22873047 0.01814453 4.04535156 0.02652344 4.88671875 0.03515625 C5.72267578 0.03966797 6.55863281 0.04417969 7.41992188 0.04882812 C9.47138524 0.06055077 11.52281148 0.07848422 13.57421875 0.09765625 C13.00832031 1.08507812 12.44242188 2.0725 11.859375 3.08984375 C11.11846116 4.38409831 10.3775773 5.67837004 9.63671875 6.97265625 C9.26353516 7.62363281 8.89035156 8.27460938 8.50585938 8.9453125 C6.47288797 12.48512459 6.47288797 12.48512459 4.57421875 16.09765625 C3.91421875 16.09765625 3.25421875 16.09765625 2.57421875 16.09765625 C2.4659375 16.81953125 2.35765625 17.54140625 2.24609375 18.28515625 C1.52113728 21.31985777 0.4380153 23.4357238 -1.17578125 26.09765625 C-1.91054687 27.33515625 -1.91054687 27.33515625 -2.66015625 28.59765625 C-4.42578125 31.09765625 -4.42578125 31.09765625 -9.42578125 36.09765625 C-9.42578125 24.54765625 -9.42578125 12.99765625 -9.42578125 1.09765625 C-5.92999552 0.3984991 -3.43171332 -0.02468859 0 0 Z " fill="#ED8B15" transform="translate(91.42578125,197.90234375)"/>
<path d="M0 0 C0 0.66 0 1.32 0 2 C-0.66 2 -1.32 2 -2 2 C-2.38478516 2.86818359 -2.38478516 2.86818359 -2.77734375 3.75390625 C-7.36449977 12.18079032 -16.75418948 18.04637996 -24.32250977 23.57006836 C-25.04108154 24.10124268 -25.75965332 24.63241699 -26.5 25.1796875 C-27.1496875 25.65132324 -27.799375 26.12295898 -28.46875 26.60888672 C-30.28106564 28.02729406 -30.28106564 28.02729406 -31 31 C-31.66 31 -32.32 31 -33 31 C-32.67 32.65 -32.34 34.3 -32 36 C-32.66 35.67 -33.32 35.34 -34 35 C-34 34.01 -34 33.02 -34 32 C-34.99 32 -35.98 32 -37 32 C-37 30.35 -37 28.7 -37 27 C-36.34 27 -35.68 27 -35 27 C-35 26.01 -35 25.02 -35 24 C-33.71484375 22.6496582 -33.71484375 22.6496582 -31.9375 21.30078125 C-30.99003906 20.57084961 -30.99003906 20.57084961 -30.0234375 19.82617188 C-29.02183594 19.0769043 -29.02183594 19.0769043 -28 18.3125 C-27.33226562 17.80138672 -26.66453125 17.29027344 -25.9765625 16.76367188 C-24.32409478 15.5007144 -22.6628489 14.24925765 -21 13 C-24.3 12.67 -27.6 12.34 -31 12 C-31.33 10.35 -31.66 8.7 -32 7 C-31.16976318 6.89510254 -31.16976318 6.89510254 -30.32275391 6.78808594 C-16.63788086 5.18879218 -16.63788086 5.18879218 -3.6796875 0.76953125 C-2 0 -2 0 0 0 Z " fill="#7D7C7B" transform="translate(38,289)"/>
<path d="M0 0 C3.74652124 -0.10553581 6.63776022 0.29444523 10 2 C13.64520291 7.23997919 15.98444825 12.95334475 18 19 C19.98 19 21.96 19 24 19 C24 19.33 24 19.66 24 20 C11.88953139 20.71354643 1.25341147 18.67664003 -9 12 C-7.05313538 9.83681709 -5.3702828 8.62957812 -2.8125 7.125 C-1.884375 6.42375 -0.95625 5.7225 0 5 C0.2347034 2.41102031 0.2347034 2.41102031 0 0 Z " fill="#786C6C" transform="translate(122,327)"/>
<path d="M0 0 C-0.13921875 1.13501953 -0.13921875 1.13501953 -0.28125 2.29296875 C-0.2887504 5.13615562 -0.2887504 5.13615562 1.96875 6.80078125 C2.8040625 7.29964844 3.639375 7.79851562 4.5 8.3125 C5.3353125 8.82425781 6.170625 9.33601563 7.03125 9.86328125 C7.6809375 10.23839844 8.330625 10.61351562 9 11 C-1.16153782 19.01505567 -12.42899656 20.3828732 -25 20 C-25 19.67 -25 19.34 -25 19 C-22.36 19 -19.72 19 -17 19 C-16.88914063 18.30261719 -16.77828125 17.60523438 -16.6640625 16.88671875 C-15.40163964 11.39889231 -13.02282664 4.000306 -8.15234375 0.77734375 C-5.43428486 -0.00171772 -2.81402953 0 0 0 Z " fill="#786C6B" transform="translate(272,327)"/>
<path d="M0 0 C2.77839416 1.38310411 3.86203622 2.54916347 6 5 C6.91046162 9.55230808 6.33361931 11.42659182 4 15.4375 C0.47228916 18.45075301 0.47228916 18.45075301 -3 18.6875 C-6.18845573 18.41575661 -7.2010566 17.86596227 -10 16 C-12.21963243 12.67055136 -12.75539772 10.86081066 -12.48046875 6.9375 C-10.87986768 0.48304366 -5.96568896 -1.0466121 0 0 Z " fill="#F6F6F6" transform="translate(80,279)"/>
<path d="M0 0 C4.81826218 0.84530916 6.34029694 1.93125503 9.5625 5.625 C10.46624743 10.14373713 9.88534244 12.05221503 7.625 16.0625 C4.05103266 19.05296247 2.20728451 19.53318872 -2.34375 19.20703125 C-4.4375 18.625 -4.4375 18.625 -7 16.0625 C-8.64544387 12.12774292 -9.12731086 9.84051078 -8.4375 5.625 C-5.86890902 1.96670376 -4.41498801 0.80272509 0 0 Z " fill="#F7F6F7" transform="translate(316.4375,278.375)"/>
<path d="M0 0 C2.875 2.3125 2.875 2.3125 5 5 C4.82482412 7.70726362 4.32747229 8.7084972 2.29296875 10.51953125 C1.59816406 10.94621094 0.90335938 11.37289063 0.1875 11.8125 C-0.84310547 12.47185547 -0.84310547 12.47185547 -1.89453125 13.14453125 C-4.46242894 14.18788857 -5.45115398 14.00517871 -8 13 C-10.02951535 11.71203834 -12.03501678 10.38442 -14 9 C-14 13.29 -14 17.58 -14 22 C-14.33 22 -14.66 22 -15 22 C-15.16831775 19.58343806 -15.33471262 17.16676951 -15.5 14.75 C-15.54769531 14.06808594 -15.59539062 13.38617188 -15.64453125 12.68359375 C-15.86478719 9.44268497 -16 6.2506634 -16 3 C-14.27709395 2.29695778 -12.54632534 1.61316509 -10.8125 0.9375 C-9.84957031 0.55464844 -8.88664062 0.17179687 -7.89453125 -0.22265625 C-4.72696952 -1.07332398 -3.09012094 -1.02135532 0 0 Z " fill="#685E5F" transform="translate(118,324)"/>
<path d="M0 0 C2.83981455 0.73777475 5.67631104 1.47816827 8.50390625 2.26171875 C9.96763672 2.66583984 9.96763672 2.66583984 11.4609375 3.078125 C12.19699219 3.28308594 12.93304688 3.48804688 13.69140625 3.69921875 C13.69140625 4.68921875 13.69140625 5.67921875 13.69140625 6.69921875 C12.1953125 8.09375 12.1953125 8.09375 10.25390625 9.51171875 C7.40453431 11.80385465 6.77502392 12.39819514 5.75390625 16.07421875 C5.73328125 16.94046875 5.71265625 17.80671875 5.69140625 18.69921875 C5.36140625 18.69921875 5.03140625 18.69921875 4.69140625 18.69921875 C4.69140625 17.04921875 4.69140625 15.39921875 4.69140625 13.69921875 C4.129375 13.92480469 3.56734375 14.15039062 2.98828125 14.3828125 C-0.24510331 14.82822772 -1.45426696 13.638366 -4.05859375 11.76171875 C-4.8578125 11.19582031 -5.65703125 10.62992187 -6.48046875 10.046875 C-7.08375 9.60214844 -7.68703125 9.15742188 -8.30859375 8.69921875 C-7.77838017 5.22977775 -7.54508794 3.94885151 -5.05859375 1.32421875 C-2.30859375 -0.30078125 -2.30859375 -0.30078125 0 0 Z " fill="#655C5C" transform="translate(279.30859375,323.30078125)"/>
<path d="M0 0 C4.29 0 8.58 0 13 0 C12.67 1.32 12.34 2.64 12 4 C11.93451508 5.58211573 11.91421619 7.16670081 11.9375 8.75 C11.958125 10.1525 11.97875 11.555 12 13 C8.37 12.67 4.74 12.34 1 12 C0.67 8.04 0.34 4.08 0 0 Z " fill="#665D5D" transform="translate(191,299)"/>
<path d="M0 0 C0 2.31 0 4.62 0 7 C-1.01320313 7.09796875 -2.02640625 7.1959375 -3.0703125 7.296875 C-4.42197055 7.44705923 -5.77352817 7.59814923 -7.125 7.75 C-7.79015625 7.811875 -8.4553125 7.87375 -9.140625 7.9375 C-14.87149163 8.6117196 -18.69642615 10.69642615 -22.75 14.75 C-23.36875 15.36875 -23.36875 15.36875 -24 16 C-24.66 16 -25.32 16 -26 16 C-24.00261448 9.96644684 -20.27822771 7.28526857 -15 4 C-9.96945664 1.68133985 -5.56841274 0 0 0 Z " fill="#393334" transform="translate(81,211)"/>
<path d="M0 0 C1.93166016 0.01740234 1.93166016 0.01740234 3.90234375 0.03515625 C5.19269531 0.04417969 6.48304687 0.05320313 7.8125 0.0625 C8.81152344 0.07410156 9.81054688 0.08570313 10.83984375 0.09765625 C10.20046875 0.40703125 9.56109375 0.71640625 8.90234375 1.03515625 C6.90373554 1.93217255 6.90373554 1.93217255 5.83984375 3.09765625 C8.80984375 3.42765625 11.77984375 3.75765625 14.83984375 4.09765625 C14.83984375 4.75765625 14.83984375 5.41765625 14.83984375 6.09765625 C8.23984375 6.09765625 1.63984375 6.09765625 -5.16015625 6.09765625 C-3.96513137 0.12253187 -3.96513137 0.12253187 0 0 Z " fill="#C5BEB4" transform="translate(96.16015625,191.90234375)"/>
<path d="M0 0 C1.98 1.32 3.96 2.64 6 4 C4.54978611 6.90042778 2.67895099 7.12473896 -0.3125 8.25 C-1.27800781 8.62640625 -2.24351563 9.0028125 -3.23828125 9.390625 C-6 10 -6 10 -8.23046875 9.296875 C-10 8 -10 8 -12 5 C-8.04 4.01 -4.08 3.02 0 2 C0 1.34 0 0.68 0 0 Z " fill="#776A68" transform="translate(108,318)"/>
<path d="M0 0 C3.70191933 1.5095205 5.91117318 4.50262837 8.01171875 7.8203125 C8.76171875 11.6328125 8.76171875 11.6328125 9.01171875 14.8203125 C9.67171875 15.4803125 10.33171875 16.1403125 11.01171875 16.8203125 C9.03171875 17.1503125 7.05171875 17.4803125 5.01171875 17.8203125 C5.04394531 17.16804688 5.07617188 16.51578125 5.109375 15.84375 C5.0707735 12.93577004 4.88176788 10.60446971 4.01171875 7.8203125 C1.31004538 5.21039408 -1.63604947 3.48627011 -4.98828125 1.8203125 C-1.98828125 -0.1796875 -1.98828125 -0.1796875 0 0 Z " fill="#776B69" transform="translate(141.98828125,328.1796875)"/>
<path d="M0 0 C1.0209375 0.2165625 1.0209375 0.2165625 2.0625 0.4375 C2.0625 1.4275 2.0625 2.4175 2.0625 3.4375 C-3.6875 6.4375 -3.6875 6.4375 -5.9375 6.4375 C-6.2675 10.3975 -6.5975 14.3575 -6.9375 18.4375 C-8.9175 18.1075 -10.8975 17.7775 -12.9375 17.4375 C-11.9475 17.1075 -10.9575 16.7775 -9.9375 16.4375 C-10.01871094 15.86902344 -10.09992188 15.30054688 -10.18359375 14.71484375 C-10.48411751 11.04109406 -10.58902911 8.4534437 -8.5546875 5.28125 C-5.80303038 2.37473772 -4.0245771 0.5994051 0 0 Z " fill="#776B6A" transform="translate(253.9375,327.5625)"/>
<path d="M0 0 C0.86625 0.639375 1.7325 1.27875 2.625 1.9375 C5.9598812 3.97548296 8.16047478 4.63433093 12 5 C10.25 8.875 10.25 8.875 8 10 C5.46875 9.546875 5.46875 9.546875 2.5 8.75 C1.5203125 8.49734375 0.540625 8.2446875 -0.46875 7.984375 C-3 7 -3 7 -5 4 C-3.35 2.68 -1.7 1.36 0 0 Z " fill="#786B68" transform="translate(285,318)"/>
<path d="M0 0 C0.33 1.32 0.66 2.64 1 4 C-3.62197306 6.21854707 -6.76824163 7.38281159 -12 7 C-12.66 5.68 -13.32 4.36 -14 3 C-9.07015675 0.96006486 -5.42039575 -0.40652968 0 0 Z " fill="#655B5D" transform="translate(107,316)"/>
<path d="M0 0 C1.3271261 3.9813783 1.06915913 7.85045227 1 12 C1.66 12.33 2.32 12.66 3 13 C1.35 13.66 -0.3 14.32 -2 15 C-3.21568385 11.6771308 -4.03808466 8.70960446 -4.5 5.1875 C-4.665 4.135625 -4.83 3.08375 -5 2 C-5.66 1.67 -6.32 1.34 -7 1 C-4 0 -4 0 0 0 Z " fill="#786B67" transform="translate(191,299)"/>
<path d="M0 0 C0.3125 2.3125 0.3125 2.3125 0 5 C-3.28889579 7.72508509 -5.78287443 8.36146791 -10 8 C-10.33 8.66 -10.66 9.32 -11 10 C-11.66 8.35 -12.32 6.7 -13 5 C-11.75264433 4.3490741 -10.50198168 3.70448331 -9.25 3.0625 C-8.55390625 2.70285156 -7.8578125 2.34320313 -7.140625 1.97265625 C-4.86203332 0.93731076 -2.53955388 0 0 0 Z " fill="#635959" transform="translate(96,297)"/>
<path d="M0 0 C1.65 0.33 3.3 0.66 5 1 C4.01 1.495 4.01 1.495 3 2 C2.60740407 4.78466652 2.60740407 4.78466652 2.5 8 C2.34375 11.3125 2.34375 11.3125 2 14 C1.01 14.495 1.01 14.495 0 15 C-2 13 -2 13 -2.265625 10.9765625 C-2.26046875 10.20054687 -2.2553125 9.42453125 -2.25 8.625 C-2.25515625 7.85414063 -2.2603125 7.08328125 -2.265625 6.2890625 C-1.97688045 3.8007639 -1.24139229 2.15765802 0 0 Z " fill="#7A6B66" transform="translate(204,299)"/>
<path d="M0 0 C3.8063457 0.67170806 7.35206816 1.72746564 11 3 C11 4.98 11 6.96 11 9 C10.67 8.34 10.34 7.68 10 7 C7.66842508 6.65458149 5.33491639 6.32205743 3 6 C2.01 5.34 1.02 4.68 0 4 C0 2.68 0 1.36 0 0 Z " fill="#625A5B" transform="translate(298,298)"/>
<path d="M0 0 C0.66 0 1.32 0 2 0 C2 1.32 2 2.64 2 4 C2.66 4 3.32 4 4 4 C4 4.99 4 5.98 4 7 C3.34 7 2.68 7 2 7 C2.33 8.65 2.66 10.3 3 12 C2.34 11.67 1.68 11.34 1 11 C1 10.01 1 9.02 1 8 C0.01 8 -0.98 8 -2 8 C-2 6.35 -2 4.7 -2 3 C-1.34 3 -0.68 3 0 3 C0 2.01 0 1.02 0 0 Z " fill="#646362" transform="translate(3,313)"/>
<path d="M0 0 C0.598125 0.20625 1.19625 0.4125 1.8125 0.625 C0.8125 3.625 0.8125 3.625 -2.1875 5.625 C-3.5075 5.625 -4.8275 5.625 -6.1875 5.625 C-5.875 3.75 -5.875 3.75 -5.1875 1.625 C-2.1875 -0.375 -2.1875 -0.375 0 0 Z " fill="#685F5F" transform="translate(126.1875,337.375)"/>
<path d="M0 0 C2.9375 0.8125 2.9375 0.8125 6 2 C6.33 2.99 6.66 3.98 7 5 C1.25 4.125 1.25 4.125 -1 3 C-0.67 2.01 -0.34 1.02 0 0 Z " fill="#665D5E" transform="translate(267,337)"/>
<path d="M0 0 C0 0.99 0 1.98 0 3 C-5.5 6.125 -5.5 6.125 -10 5 C-6.7 3.35 -3.4 1.7 0 0 Z " fill="#C0BFBC" transform="translate(195,159)"/>
<path d="M0 0 C1.32168051 2.17688554 2.0131712 3.55217933 1.9375 6.125 C1 8 1 8 -1.5625 9.25 C-2.366875 9.4975 -3.17125 9.745 -4 10 C-3.525625 9.278125 -3.05125 8.55625 -2.5625 7.8125 C-1.05847097 5.10524774 -0.43400818 3.03805725 0 0 Z " fill="#50494B" transform="translate(326,286)"/>
<path d="M0 0 C-5.07006276 2.53503138 -7.21472229 2.96421295 -13 2 C-13 1.67 -13 1.34 -13 1 C-8.61414671 0.29826347 -4.44209357 -0.10834375 0 0 Z M-8 3 C-6 4 -6 4 -6 4 Z " fill="#D9D8D8" transform="translate(107,192)"/>
</svg>
